<?xml version="1.0" encoding="utf-8"?>
<!-- Generator: Adobe Illustrator 24.0.1, SVG Export Plug-In . SVG Version: 6.00 Build 0)  -->
<svg version="1.1" id="Layer_1" xmlns="http://www.w3.org/2000/svg" xmlns:xlink="http://www.w3.org/1999/xlink" x="0px" y="0px"
	 viewBox="0 0 279.6 218.3" style="enable-background:new 0 0 279.6 218.3;" xml:space="preserve">
<style type="text/css">
	.st0{clip-path:url(#XMLID_277_);}
	.st1{fill:#FFFFFF;}
	.st2{fill:none;stroke:#DFE0E2;stroke-width:0.6;}
	.st3{fill:#284664;}
	.st4{fill:none;stroke:#7A7E85;stroke-width:0.8;}
	.st5{fill:#CA424B;}
	.st6{fill:none;stroke:#DFE0E2;stroke-width:0.4;}
	.st7{fill:#E6E7E9;fill-opacity:0.5;stroke:#DFE0E2;stroke-width:0.6;}
	.st8{fill:#E6E7E9;fill-opacity:0.5;}
</style>
<g id="XMLID_275_">
	<defs>
		<path id="XMLID_1_" d="M243.1,196.7H36.9c-4.9,0-8.9-4-8.9-8.9V30.4c0-4.9,4-8.9,8.9-8.9h206.3c4.9,0,8.9,4,8.9,8.9v157.5
			C252,192.8,248,196.7,243.1,196.7z"/>
	</defs>
	<clipPath id="XMLID_277_">
		<use xlink:href="#XMLID_1_"  style="overflow:visible;"/>
	</clipPath>
	<g id="XMLID_2_" class="st0">
		<g id="XMLID_133_">
			<path id="XMLID_135_" class="st1" d="M30.4,21.5h219.2c1.3,0,2.4,1.1,2.4,2.4v170.4c0,1.3-1.1,2.4-2.4,2.4H30.4
				c-1.3,0-2.4-1.1-2.4-2.4V23.9C28,22.6,29.1,21.5,30.4,21.5z"/>
			<path id="XMLID_134_" class="st2" d="M30.4,21.8h219.2c1.2,0,2.1,0.9,2.1,2.1v170.4c0,1.2-0.9,2.1-2.1,2.1H30.4
				c-1.2,0-2.1-0.9-2.1-2.1V23.9C28.3,22.8,29.2,21.8,30.4,21.8z"/>
		</g>
		<path id="XMLID_132_" class="st3" d="M62.9,118.3V111h-0.7c0,0.3-0.1,0.5-0.3,0.7c-0.1,0.2-0.3,0.3-0.5,0.4
			c-0.2,0.1-0.4,0.2-0.6,0.2c-0.2,0-0.5,0.1-0.7,0.1v0.7H62v5.3H62.9z"/>
		<path id="XMLID_131_" class="st3" d="M65.4,113.6h0.9c0-0.2,0-0.4,0.1-0.7c0.1-0.2,0.1-0.4,0.3-0.6c0.1-0.2,0.3-0.3,0.4-0.4
			c0.2-0.1,0.4-0.2,0.7-0.2c0.2,0,0.4,0,0.6,0.1c0.2,0.1,0.3,0.2,0.4,0.3c0.1,0.1,0.2,0.3,0.3,0.4c0.1,0.2,0.1,0.3,0.1,0.5
			c0,0.3,0,0.5-0.1,0.7c-0.1,0.2-0.2,0.4-0.4,0.5c-0.2,0.2-0.3,0.3-0.6,0.5c-0.2,0.2-0.5,0.3-0.8,0.5c-0.3,0.2-0.5,0.3-0.7,0.5
			c-0.2,0.2-0.4,0.4-0.6,0.6c-0.2,0.2-0.3,0.5-0.5,0.8c-0.1,0.3-0.2,0.7-0.2,1.1H70v-0.8h-3.8c0-0.2,0.1-0.4,0.3-0.6
			c0.1-0.2,0.3-0.3,0.5-0.5c0.2-0.2,0.4-0.3,0.6-0.4c0.2-0.1,0.5-0.3,0.7-0.4c0.2-0.1,0.5-0.3,0.7-0.5c0.2-0.2,0.4-0.3,0.6-0.5
			c0.2-0.2,0.3-0.4,0.4-0.7c0.1-0.2,0.2-0.5,0.2-0.9c0-0.3-0.1-0.7-0.2-0.9c-0.1-0.3-0.3-0.5-0.5-0.7c-0.2-0.2-0.5-0.3-0.7-0.4
			c-0.3-0.1-0.6-0.1-0.9-0.1c-0.4,0-0.7,0.1-1,0.2c-0.3,0.1-0.6,0.3-0.8,0.6c-0.2,0.2-0.3,0.5-0.4,0.8
			C65.5,112.8,65.4,113.2,65.4,113.6z"/>
		<path id="XMLID_130_" class="st3" d="M73,114.1v0.7c0.2,0,0.3,0,0.5,0c0.2,0,0.4,0,0.6,0.1c0.2,0.1,0.4,0.1,0.5,0.3
			c0.1,0.1,0.2,0.3,0.3,0.4c0.1,0.2,0.1,0.4,0.1,0.6c0,0.2,0,0.4-0.1,0.6c-0.1,0.2-0.2,0.3-0.3,0.4c-0.1,0.1-0.3,0.2-0.5,0.3
			c-0.2,0.1-0.4,0.1-0.6,0.1c-0.5,0-0.9-0.1-1.2-0.4c-0.3-0.3-0.4-0.7-0.4-1.2h-0.9c0,0.4,0,0.7,0.2,1c0.1,0.3,0.3,0.6,0.5,0.8
			c0.2,0.2,0.5,0.4,0.8,0.5c0.3,0.1,0.6,0.2,1,0.2c0.3,0,0.7,0,1-0.1c0.3-0.1,0.6-0.2,0.8-0.4c0.2-0.2,0.4-0.4,0.5-0.7
			c0.1-0.3,0.2-0.6,0.2-1c0-0.4-0.1-0.8-0.3-1.2c-0.2-0.3-0.5-0.5-1-0.6v0c0.3-0.1,0.5-0.3,0.7-0.6s0.3-0.6,0.3-0.9
			c0-0.3-0.1-0.6-0.2-0.9c-0.1-0.2-0.3-0.5-0.5-0.6c-0.2-0.2-0.4-0.3-0.7-0.4c-0.3-0.1-0.6-0.1-0.9-0.1c-0.4,0-0.7,0.1-1,0.2
			c-0.3,0.1-0.5,0.3-0.7,0.5c-0.2,0.2-0.3,0.5-0.4,0.7c-0.1,0.3-0.2,0.6-0.2,1h0.9c0-0.2,0-0.4,0.1-0.6c0.1-0.2,0.1-0.4,0.2-0.5
			c0.1-0.1,0.3-0.3,0.4-0.3c0.2-0.1,0.4-0.1,0.6-0.1c0.4,0,0.7,0.1,0.9,0.3c0.2,0.2,0.4,0.5,0.4,0.9c0,0.2,0,0.4-0.1,0.5
			c-0.1,0.2-0.2,0.3-0.3,0.4c-0.1,0.1-0.3,0.2-0.4,0.2c-0.2,0-0.3,0.1-0.5,0.1h-0.2C73.2,114.1,73.2,114.1,73,114.1
			C73.1,114.1,73.1,114.1,73,114.1z"/>
		<path id="XMLID_129_" class="st3" d="M85.5,113.1h1c-0.1-0.4-0.2-0.7-0.4-1c-0.2-0.3-0.4-0.6-0.7-0.8c-0.3-0.2-0.6-0.4-0.9-0.5
			c-0.3-0.1-0.7-0.2-1.1-0.2c-0.6,0-1.1,0.1-1.5,0.3c-0.4,0.2-0.8,0.5-1.1,0.8c-0.3,0.4-0.5,0.8-0.7,1.2c-0.2,0.5-0.2,1-0.2,1.5
			c0,0.5,0.1,1,0.2,1.5c0.1,0.5,0.4,0.9,0.6,1.2c0.3,0.3,0.6,0.6,1.1,0.8c0.4,0.2,0.9,0.3,1.5,0.3c0.9,0,1.7-0.3,2.2-0.8
			c0.5-0.5,0.9-1.2,1-2.2h-1c0,0.3-0.1,0.6-0.2,0.9c-0.1,0.3-0.2,0.5-0.4,0.7c-0.2,0.2-0.4,0.3-0.7,0.4c-0.2,0.1-0.5,0.2-0.9,0.2
			c-0.4,0-0.8-0.1-1.1-0.2c-0.3-0.2-0.6-0.4-0.8-0.7c-0.2-0.3-0.4-0.6-0.4-1c-0.1-0.4-0.1-0.8-0.1-1.2c0-0.4,0-0.8,0.1-1.1
			c0.1-0.4,0.2-0.7,0.4-1c0.2-0.3,0.5-0.5,0.8-0.7c0.3-0.2,0.7-0.2,1.1-0.2c0.5,0,1,0.1,1.3,0.4C85.1,112.2,85.4,112.6,85.5,113.1z"
			/>
		<path id="XMLID_126_" class="st3" d="M88.2,115.6c0-0.3,0-0.6,0.1-0.9c0.1-0.3,0.2-0.5,0.4-0.6c0.2-0.2,0.3-0.3,0.5-0.4
			c0.2-0.1,0.4-0.1,0.7-0.1c0.2,0,0.4,0,0.6,0.1c0.2,0.1,0.4,0.2,0.5,0.4c0.2,0.2,0.3,0.4,0.4,0.6c0.1,0.2,0.1,0.5,0.1,0.9
			c0,0.3,0,0.6-0.1,0.9c-0.1,0.2-0.2,0.5-0.4,0.6c-0.2,0.2-0.3,0.3-0.5,0.4c-0.2,0.1-0.4,0.1-0.6,0.1c-0.2,0-0.4,0-0.7-0.1
			c-0.2-0.1-0.4-0.2-0.5-0.4c-0.2-0.2-0.3-0.4-0.4-0.6C88.3,116.3,88.2,116,88.2,115.6z M87.3,115.6c0,0.4,0.1,0.8,0.2,1.1
			c0.1,0.3,0.3,0.6,0.5,0.9c0.2,0.2,0.5,0.4,0.8,0.6c0.3,0.1,0.7,0.2,1.1,0.2c0.4,0,0.8-0.1,1.1-0.2c0.3-0.1,0.6-0.3,0.8-0.6
			c0.2-0.3,0.4-0.6,0.5-0.9c0.1-0.3,0.2-0.7,0.2-1.1c0-0.4-0.1-0.8-0.2-1.1c-0.1-0.3-0.3-0.6-0.5-0.9c-0.2-0.3-0.5-0.5-0.8-0.6
			c-0.3-0.1-0.7-0.2-1.1-0.2c-0.4,0-0.8,0.1-1.1,0.2c-0.3,0.1-0.6,0.3-0.8,0.6c-0.2,0.2-0.4,0.5-0.5,0.9
			C87.4,114.9,87.3,115.2,87.3,115.6z"/>
		<path id="XMLID_125_" class="st3" d="M93.6,110.9v7.4h0.9v-7.4H93.6z"/>
		<path id="XMLID_124_" class="st3" d="M95.9,110.9v7.4h0.9v-7.4H95.9z"/>
		<path id="XMLID_121_" class="st3" d="M99.1,112v-1.1h-0.9v1.1H99.1z M98.2,112.9v5.4h0.9v-5.4H98.2z"/>
		<path id="XMLID_120_" class="st3" d="M100.5,112.9v5.4h0.9v-3c0-0.2,0-0.5,0.1-0.7c0.1-0.2,0.2-0.4,0.3-0.5
			c0.1-0.2,0.3-0.3,0.5-0.4c0.2-0.1,0.4-0.1,0.7-0.1c0.3,0,0.6,0.1,0.8,0.3c0.2,0.2,0.3,0.5,0.3,0.8v3.6h0.9v-3.5
			c0-0.3,0-0.6-0.1-0.8c-0.1-0.2-0.2-0.5-0.3-0.6c-0.1-0.2-0.3-0.3-0.6-0.4c-0.2-0.1-0.5-0.1-0.9-0.1c-0.8,0-1.4,0.3-1.7,1h0v-0.9
			H100.5z"/>
		<path id="XMLID_119_" class="st3" d="M106.8,116.6h-0.9c0,0.3,0.1,0.6,0.2,0.9c0.1,0.2,0.3,0.4,0.5,0.6c0.2,0.1,0.4,0.2,0.7,0.3
			c0.3,0.1,0.6,0.1,0.9,0.1c0.3,0,0.5,0,0.8-0.1c0.3,0,0.5-0.1,0.7-0.3c0.2-0.1,0.4-0.3,0.5-0.5c0.1-0.2,0.2-0.5,0.2-0.8
			c0-0.3-0.1-0.5-0.2-0.6c-0.1-0.2-0.2-0.3-0.4-0.4c-0.2-0.1-0.3-0.2-0.6-0.3c-0.2-0.1-0.4-0.1-0.6-0.2c-0.2,0-0.4-0.1-0.6-0.1
			c-0.2,0-0.4-0.1-0.6-0.2c-0.2-0.1-0.3-0.2-0.4-0.2c-0.1-0.1-0.2-0.2-0.2-0.4c0-0.1,0-0.2,0.1-0.3c0.1-0.1,0.2-0.2,0.3-0.2
			c0.1-0.1,0.2-0.1,0.4-0.1c0.1,0,0.3,0,0.4,0c0.1,0,0.3,0,0.4,0.1c0.1,0,0.3,0.1,0.4,0.1c0.1,0.1,0.2,0.2,0.3,0.3
			c0.1,0.1,0.1,0.3,0.1,0.4h0.9c0-0.3-0.1-0.6-0.2-0.8c-0.1-0.2-0.3-0.4-0.5-0.5c-0.2-0.1-0.4-0.2-0.7-0.3c-0.3-0.1-0.5-0.1-0.8-0.1
			c-0.2,0-0.5,0-0.7,0.1c-0.2,0.1-0.5,0.1-0.6,0.3c-0.2,0.1-0.3,0.3-0.5,0.5c-0.1,0.2-0.2,0.4-0.2,0.7c0,0.3,0.1,0.6,0.3,0.8
			c0.2,0.2,0.4,0.3,0.6,0.5c0.3,0.1,0.5,0.2,0.9,0.2c0.3,0.1,0.6,0.1,0.8,0.2c0.3,0.1,0.5,0.2,0.7,0.3c0.2,0.1,0.3,0.3,0.3,0.5
			c0,0.2,0,0.3-0.1,0.4c-0.1,0.1-0.2,0.2-0.3,0.2c-0.1,0.1-0.3,0.1-0.4,0.1c-0.2,0-0.3,0-0.4,0c-0.2,0-0.4,0-0.5-0.1
			c-0.2,0-0.3-0.1-0.5-0.2c-0.1-0.1-0.2-0.2-0.3-0.3C106.9,117,106.8,116.8,106.8,116.6z"/>
		<path id="XMLID_116_" class="st3" d="M200.5,115.8h-2.5l2.5-3.6h0V115.8z M201.4,115.8V111h-0.7l-3.4,4.8v0.9h3.2v1.7h0.8v-1.7h1
			v-0.8H201.4z"/>
		<path id="XMLID_113_" class="st3" d="M204.2,114.7c0-0.2,0-0.4,0-0.6c0-0.2,0-0.4,0.1-0.7c0-0.2,0.1-0.4,0.1-0.6
			c0.1-0.2,0.1-0.4,0.3-0.5c0.1-0.2,0.3-0.3,0.4-0.4c0.2-0.1,0.4-0.1,0.6-0.1c0.2,0,0.5,0,0.6,0.1c0.2,0.1,0.3,0.2,0.4,0.4
			c0.1,0.2,0.2,0.3,0.3,0.5c0.1,0.2,0.1,0.4,0.1,0.6c0,0.2,0.1,0.4,0.1,0.7c0,0.2,0,0.4,0,0.6c0,0.3,0,0.6,0,0.9
			c0,0.3-0.1,0.7-0.2,1c-0.1,0.3-0.2,0.6-0.4,0.8c-0.2,0.2-0.5,0.3-0.9,0.3c-0.4,0-0.7-0.1-0.9-0.3c-0.2-0.2-0.4-0.5-0.5-0.8
			c-0.1-0.3-0.1-0.6-0.2-1C204.2,115.3,204.2,115,204.2,114.7z M203.2,114.7c0,0.3,0,0.6,0,0.8c0,0.3,0,0.6,0.1,0.9
			c0.1,0.3,0.1,0.5,0.2,0.8c0.1,0.2,0.2,0.5,0.4,0.6c0.2,0.2,0.4,0.3,0.7,0.4c0.3,0.1,0.6,0.2,1,0.2c0.4,0,0.7-0.1,1-0.2
			c0.3-0.1,0.5-0.3,0.7-0.4c0.2-0.2,0.3-0.4,0.4-0.6c0.1-0.2,0.2-0.5,0.2-0.8c0.1-0.3,0.1-0.6,0.1-0.9c0-0.3,0-0.6,0-0.8
			c0-0.3,0-0.6,0-0.8c0-0.3,0-0.6-0.1-0.9c-0.1-0.3-0.1-0.5-0.2-0.8c-0.1-0.2-0.2-0.5-0.4-0.7c-0.2-0.2-0.4-0.3-0.7-0.4
			c-0.3-0.1-0.6-0.2-1-0.2c-0.4,0-0.7,0.1-1,0.2c-0.3,0.1-0.5,0.3-0.7,0.4c-0.2,0.2-0.3,0.4-0.4,0.7c-0.1,0.2-0.2,0.5-0.2,0.8
			c-0.1,0.3-0.1,0.6-0.1,0.9C203.2,114.2,203.2,114.4,203.2,114.7z"/>
		<path id="XMLID_110_" class="st3" d="M209.9,114.7c0-0.2,0-0.4,0-0.6c0-0.2,0-0.4,0.1-0.7c0-0.2,0.1-0.4,0.1-0.6
			c0.1-0.2,0.1-0.4,0.3-0.5c0.1-0.2,0.3-0.3,0.4-0.4c0.2-0.1,0.4-0.1,0.6-0.1c0.2,0,0.5,0,0.6,0.1c0.2,0.1,0.3,0.2,0.4,0.4
			c0.1,0.2,0.2,0.3,0.3,0.5c0.1,0.2,0.1,0.4,0.1,0.6c0,0.2,0.1,0.4,0.1,0.7c0,0.2,0,0.4,0,0.6c0,0.3,0,0.6,0,0.9
			c0,0.3-0.1,0.7-0.2,1c-0.1,0.3-0.2,0.6-0.4,0.8c-0.2,0.2-0.5,0.3-0.9,0.3c-0.4,0-0.7-0.1-0.9-0.3c-0.2-0.2-0.4-0.5-0.5-0.8
			c-0.1-0.3-0.1-0.6-0.2-1C210,115.3,209.9,115,209.9,114.7z M209,114.7c0,0.3,0,0.6,0,0.8c0,0.3,0,0.6,0.1,0.9
			c0.1,0.3,0.1,0.5,0.2,0.8c0.1,0.2,0.2,0.5,0.4,0.6c0.2,0.2,0.4,0.3,0.7,0.4c0.3,0.1,0.6,0.2,1,0.2c0.4,0,0.7-0.1,1-0.2
			c0.3-0.1,0.5-0.3,0.7-0.4c0.2-0.2,0.3-0.4,0.4-0.6c0.1-0.2,0.2-0.5,0.2-0.8c0.1-0.3,0.1-0.6,0.1-0.9c0-0.3,0-0.6,0-0.8
			c0-0.3,0-0.6,0-0.8c0-0.3,0-0.6-0.1-0.9c-0.1-0.3-0.1-0.5-0.2-0.8c-0.1-0.2-0.2-0.5-0.4-0.7c-0.2-0.2-0.4-0.3-0.7-0.4
			c-0.3-0.1-0.6-0.2-1-0.2c-0.4,0-0.7,0.1-1,0.2c-0.3,0.1-0.5,0.3-0.7,0.4c-0.2,0.2-0.3,0.4-0.4,0.7c-0.1,0.2-0.2,0.5-0.2,0.8
			c-0.1,0.3-0.1,0.6-0.1,0.9C209,114.2,209,114.4,209,114.7z"/>
		<path id="XMLID_109_" class="st3" d="M215.2,117.2v1.2h1.2v-1.2H215.2z"/>
		<path id="XMLID_106_" class="st3" d="M221.6,112.8h0.9c-0.1-0.6-0.3-1.1-0.6-1.4c-0.4-0.3-0.8-0.5-1.5-0.5c-0.5,0-1,0.1-1.3,0.3
			c-0.3,0.2-0.6,0.5-0.8,0.9c-0.2,0.4-0.4,0.8-0.4,1.3c-0.1,0.5-0.1,1-0.1,1.5c0,0.4,0,0.8,0.1,1.2c0.1,0.4,0.2,0.8,0.4,1.1
			c0.2,0.3,0.4,0.6,0.8,0.9c0.3,0.2,0.8,0.3,1.3,0.3c0.5,0,0.9-0.1,1.2-0.2c0.3-0.2,0.6-0.4,0.8-0.6c0.2-0.2,0.3-0.5,0.4-0.8
			c0.1-0.3,0.1-0.6,0.1-0.8c0-0.3-0.1-0.7-0.2-0.9c-0.1-0.3-0.3-0.5-0.4-0.8c-0.2-0.2-0.4-0.4-0.7-0.5c-0.3-0.1-0.6-0.2-0.9-0.2
			c-0.4,0-0.8,0.1-1.1,0.2c-0.3,0.2-0.6,0.4-0.8,0.7l0,0c0-0.3,0-0.6,0.1-0.9c0-0.3,0.1-0.6,0.3-0.9c0.1-0.3,0.3-0.5,0.5-0.7
			c0.2-0.2,0.5-0.3,0.9-0.3c0.4,0,0.6,0.1,0.9,0.3C221.4,112.2,221.5,112.5,221.6,112.8z M220.2,114.4c0.2,0,0.5,0,0.7,0.1
			c0.2,0.1,0.3,0.2,0.5,0.4c0.1,0.1,0.2,0.3,0.3,0.5c0.1,0.2,0.1,0.4,0.1,0.6c0,0.2,0,0.4-0.1,0.6c-0.1,0.2-0.2,0.4-0.3,0.5
			c-0.1,0.2-0.3,0.3-0.5,0.4c-0.2,0.1-0.4,0.1-0.6,0.1c-0.2,0-0.5,0-0.7-0.1c-0.2-0.1-0.3-0.2-0.5-0.4c-0.1-0.1-0.2-0.3-0.3-0.5
			c-0.1-0.2-0.1-0.4-0.1-0.6c0-0.2,0-0.4,0.1-0.6c0.1-0.2,0.2-0.4,0.3-0.5c0.1-0.2,0.3-0.3,0.5-0.4
			C219.8,114.4,220,114.4,220.2,114.4z"/>
		<path id="XMLID_103_" class="st3" d="M226.5,115.8h-2.5l2.5-3.6h0V115.8z M227.4,115.8V111h-0.7l-3.4,4.8v0.9h3.2v1.7h0.8v-1.7h1
			v-0.8H227.4z"/>
		<path id="XMLID_102_" class="st4" d="M235.4,116.7l2.3-2.3l-2.3-2.3"/>
		<circle id="XMLID_101_" class="st5" cx="44" cy="115.1" r="3.2"/>
		<line id="XMLID_100_" class="st6" x1="59.2" y1="164.5" x2="252" y2="164.5"/>
		<path id="XMLID_99_" class="st3" d="M60.1,146.9v7.4h1v-7.4H60.1z"/>
		<path id="XMLID_98_" class="st3" d="M64.4,147.7v6.6h1v-6.6h2.5v-0.8h-5.9v0.8H64.4z"/>
		<path id="XMLID_97_" class="st3" d="M75.9,149.1h0.9c0-0.4-0.1-0.8-0.2-1.1c-0.1-0.3-0.3-0.5-0.6-0.7c-0.2-0.2-0.5-0.3-0.9-0.4
			c-0.3-0.1-0.7-0.1-1.1-0.1c-0.3,0-0.7,0-1,0.1c-0.3,0.1-0.6,0.2-0.9,0.4c-0.2,0.2-0.5,0.4-0.6,0.7c-0.2,0.3-0.2,0.6-0.2,1
			c0,0.3,0.1,0.6,0.2,0.9c0.1,0.2,0.3,0.4,0.5,0.6c0.2,0.1,0.5,0.3,0.8,0.3c0.3,0.1,0.6,0.2,0.9,0.2c0.3,0.1,0.6,0.1,0.9,0.2
			c0.3,0.1,0.5,0.1,0.8,0.2c0.2,0.1,0.4,0.2,0.5,0.4c0.1,0.2,0.2,0.4,0.2,0.6c0,0.3-0.1,0.5-0.2,0.7c-0.1,0.2-0.3,0.3-0.4,0.4
			c-0.2,0.1-0.4,0.2-0.6,0.2c-0.2,0-0.4,0.1-0.7,0.1c-0.3,0-0.5,0-0.8-0.1c-0.3-0.1-0.5-0.2-0.7-0.3c-0.2-0.1-0.4-0.3-0.5-0.6
			c-0.1-0.2-0.2-0.5-0.2-0.8h-0.9c0,0.5,0.1,0.8,0.2,1.2c0.2,0.3,0.4,0.6,0.7,0.8c0.3,0.2,0.6,0.4,1,0.5c0.4,0.1,0.8,0.2,1.2,0.2
			c0.3,0,0.7,0,1-0.1c0.3-0.1,0.7-0.2,0.9-0.4c0.3-0.2,0.5-0.4,0.7-0.7c0.2-0.3,0.3-0.6,0.3-1c0-0.4-0.1-0.7-0.2-0.9
			c-0.1-0.2-0.3-0.4-0.5-0.6c-0.2-0.2-0.5-0.3-0.8-0.4c-0.3-0.1-0.6-0.2-0.9-0.2c-0.3-0.1-0.6-0.1-0.9-0.2c-0.3-0.1-0.5-0.1-0.8-0.2
			c-0.2-0.1-0.4-0.2-0.5-0.3c-0.1-0.1-0.2-0.3-0.2-0.6c0-0.2,0-0.4,0.1-0.6c0.1-0.2,0.2-0.3,0.4-0.4c0.2-0.1,0.3-0.2,0.5-0.2
			c0.2,0,0.4-0.1,0.6-0.1c0.5,0,0.9,0.1,1.3,0.4C75.6,148.2,75.8,148.5,75.9,149.1z"/>
		<path id="XMLID_94_" class="st3" d="M78.8,151.6c0-0.3,0-0.6,0.1-0.9c0.1-0.3,0.2-0.5,0.4-0.6c0.2-0.2,0.3-0.3,0.5-0.4
			c0.2-0.1,0.4-0.1,0.7-0.1c0.2,0,0.4,0,0.6,0.1c0.2,0.1,0.4,0.2,0.5,0.4c0.2,0.2,0.3,0.4,0.4,0.6c0.1,0.2,0.1,0.5,0.1,0.9
			s0,0.6-0.1,0.9c-0.1,0.2-0.2,0.5-0.4,0.6c-0.2,0.2-0.3,0.3-0.5,0.4c-0.2,0.1-0.4,0.1-0.6,0.1c-0.2,0-0.4,0-0.7-0.1
			c-0.2-0.1-0.4-0.2-0.5-0.4c-0.2-0.2-0.3-0.4-0.4-0.6C78.9,152.3,78.8,152,78.8,151.6z M77.9,151.6c0,0.4,0.1,0.8,0.2,1.1
			c0.1,0.3,0.3,0.6,0.5,0.9c0.2,0.2,0.5,0.4,0.8,0.6c0.3,0.1,0.7,0.2,1.1,0.2c0.4,0,0.8-0.1,1.1-0.2c0.3-0.1,0.6-0.3,0.8-0.6
			c0.2-0.3,0.4-0.6,0.5-0.9c0.1-0.3,0.2-0.7,0.2-1.1c0-0.4-0.1-0.8-0.2-1.1c-0.1-0.3-0.3-0.6-0.5-0.9c-0.2-0.3-0.5-0.5-0.8-0.6
			c-0.3-0.1-0.7-0.2-1.1-0.2c-0.4,0-0.8,0.1-1.1,0.2c-0.3,0.1-0.6,0.3-0.8,0.6c-0.2,0.2-0.4,0.5-0.5,0.9
			C77.9,150.9,77.9,151.2,77.9,151.6z"/>
		<path id="XMLID_93_" class="st3" d="M84.2,146.9v7.4h0.9v-7.4H84.2z"/>
		<path id="XMLID_92_" class="st3" d="M90.9,154.3v-5.4H90v3c0,0.2,0,0.5-0.1,0.7c-0.1,0.2-0.2,0.4-0.3,0.5
			c-0.1,0.2-0.3,0.3-0.5,0.4c-0.2,0.1-0.4,0.1-0.7,0.1c-0.3,0-0.6-0.1-0.8-0.3c-0.2-0.2-0.3-0.5-0.3-0.8v-3.6h-0.9v3.5
			c0,0.3,0,0.6,0.1,0.8c0.1,0.2,0.2,0.4,0.3,0.6c0.1,0.2,0.3,0.3,0.6,0.4c0.2,0.1,0.5,0.1,0.9,0.1c0.4,0,0.7-0.1,1-0.2
			c0.3-0.2,0.5-0.4,0.7-0.7h0v0.9H90.9z"/>
		<path id="XMLID_91_" class="st3" d="M93.4,148.9v-1.6h-0.9v1.6h-0.9v0.8h0.9v3.4c0,0.2,0,0.5,0.1,0.6c0,0.2,0.1,0.3,0.2,0.4
			c0.1,0.1,0.2,0.1,0.4,0.2c0.2,0,0.4,0,0.6,0h0.7v-0.8h-0.4c-0.1,0-0.3,0-0.3,0c-0.1,0-0.1,0-0.2-0.1c0,0-0.1-0.1-0.1-0.1
			c0-0.1,0-0.1,0-0.2v-3.3h1.1v-0.8H93.4z"/>
		<path id="XMLID_88_" class="st3" d="M96.4,148v-1.1h-0.9v1.1H96.4z M95.6,148.9v5.4h0.9v-5.4H95.6z"/>
		<path id="XMLID_85_" class="st3" d="M98.5,151.6c0-0.3,0-0.6,0.1-0.9c0.1-0.3,0.2-0.5,0.4-0.6c0.2-0.2,0.3-0.3,0.5-0.4
			c0.2-0.1,0.4-0.1,0.7-0.1c0.2,0,0.4,0,0.6,0.1c0.2,0.1,0.4,0.2,0.5,0.4c0.2,0.2,0.3,0.4,0.4,0.6c0.1,0.2,0.1,0.5,0.1,0.9
			s0,0.6-0.1,0.9c-0.1,0.2-0.2,0.5-0.4,0.6c-0.2,0.2-0.3,0.3-0.5,0.4c-0.2,0.1-0.4,0.1-0.6,0.1c-0.2,0-0.4,0-0.7-0.1
			c-0.2-0.1-0.4-0.2-0.5-0.4c-0.2-0.2-0.3-0.4-0.4-0.6C98.5,152.3,98.5,152,98.5,151.6z M97.5,151.6c0,0.4,0.1,0.8,0.2,1.1
			c0.1,0.3,0.3,0.6,0.5,0.9c0.2,0.2,0.5,0.4,0.8,0.6c0.3,0.1,0.7,0.2,1.1,0.2c0.4,0,0.8-0.1,1.1-0.2c0.3-0.1,0.6-0.3,0.8-0.6
			c0.2-0.3,0.4-0.6,0.5-0.9c0.1-0.3,0.2-0.7,0.2-1.1c0-0.4-0.1-0.8-0.2-1.1c-0.1-0.3-0.3-0.6-0.5-0.9c-0.2-0.3-0.5-0.5-0.8-0.6
			c-0.3-0.1-0.7-0.2-1.1-0.2c-0.4,0-0.8,0.1-1.1,0.2c-0.3,0.1-0.6,0.3-0.8,0.6c-0.2,0.2-0.4,0.5-0.5,0.9
			C97.6,150.9,97.5,151.2,97.5,151.6z"/>
		<path id="XMLID_84_" class="st3" d="M103.8,148.9v5.4h0.9v-3c0-0.2,0-0.5,0.1-0.7c0.1-0.2,0.2-0.4,0.3-0.5
			c0.1-0.2,0.3-0.3,0.5-0.4c0.2-0.1,0.4-0.1,0.7-0.1c0.3,0,0.6,0.1,0.8,0.3c0.2,0.2,0.3,0.5,0.3,0.8v3.6h0.9v-3.5
			c0-0.3,0-0.6-0.1-0.8c-0.1-0.2-0.2-0.5-0.3-0.6c-0.1-0.2-0.3-0.3-0.6-0.4s-0.5-0.1-0.9-0.1c-0.8,0-1.4,0.3-1.7,1h0v-0.9H103.8z"/>
		<path id="XMLID_83_" class="st3" d="M110.1,152.6h-0.9c0,0.3,0.1,0.6,0.2,0.9c0.1,0.2,0.3,0.4,0.5,0.6c0.2,0.1,0.4,0.2,0.7,0.3
			c0.3,0.1,0.6,0.1,0.9,0.1c0.3,0,0.5,0,0.8-0.1c0.3,0,0.5-0.1,0.7-0.3c0.2-0.1,0.4-0.3,0.5-0.5c0.1-0.2,0.2-0.5,0.2-0.8
			c0-0.3-0.1-0.5-0.2-0.6c-0.1-0.2-0.2-0.3-0.4-0.4c-0.2-0.1-0.3-0.2-0.6-0.3c-0.2-0.1-0.4-0.1-0.6-0.2c-0.2,0-0.4-0.1-0.6-0.1
			c-0.2,0-0.4-0.1-0.6-0.2c-0.2-0.1-0.3-0.2-0.4-0.2c-0.1-0.1-0.2-0.2-0.2-0.4c0-0.1,0-0.2,0.1-0.3c0.1-0.1,0.2-0.2,0.3-0.2
			c0.1-0.1,0.2-0.1,0.4-0.1c0.1,0,0.3,0,0.4,0c0.1,0,0.3,0,0.4,0.1c0.1,0,0.3,0.1,0.4,0.1c0.1,0.1,0.2,0.2,0.3,0.3
			c0.1,0.1,0.1,0.3,0.1,0.4h0.9c0-0.3-0.1-0.6-0.2-0.8c-0.1-0.2-0.3-0.4-0.5-0.5c-0.2-0.1-0.4-0.2-0.7-0.3c-0.3-0.1-0.5-0.1-0.8-0.1
			c-0.2,0-0.5,0-0.7,0.1c-0.2,0.1-0.5,0.1-0.6,0.3c-0.2,0.1-0.3,0.3-0.5,0.5c-0.1,0.2-0.2,0.4-0.2,0.7c0,0.3,0.1,0.6,0.3,0.8
			c0.2,0.2,0.4,0.3,0.6,0.5c0.3,0.1,0.5,0.2,0.9,0.2c0.3,0.1,0.6,0.1,0.8,0.2c0.3,0.1,0.5,0.2,0.7,0.3c0.2,0.1,0.3,0.3,0.3,0.5
			c0,0.2,0,0.3-0.1,0.4c-0.1,0.1-0.2,0.2-0.3,0.2c-0.1,0.1-0.3,0.1-0.4,0.1c-0.2,0-0.3,0-0.4,0c-0.2,0-0.4,0-0.5-0.1
			c-0.2,0-0.3-0.1-0.5-0.2c-0.1-0.1-0.2-0.2-0.3-0.3C110.2,153,110.1,152.8,110.1,152.6z"/>
		<path id="XMLID_80_" class="st3" d="M198.4,152.5h-0.9c0.1,0.6,0.3,1.1,0.7,1.4c0.4,0.3,0.9,0.5,1.5,0.5c0.9,0,1.5-0.3,1.9-1
			c0.4-0.7,0.6-1.7,0.6-2.9c0-0.7-0.1-1.3-0.2-1.7c-0.1-0.5-0.3-0.8-0.5-1.1c-0.2-0.3-0.5-0.4-0.8-0.6c-0.3-0.1-0.6-0.2-1-0.2
			c-0.4,0-0.7,0.1-1,0.2c-0.3,0.1-0.6,0.3-0.8,0.5c-0.2,0.2-0.4,0.5-0.5,0.8c-0.1,0.3-0.2,0.6-0.2,1c0,0.4,0,0.7,0.1,1
			c0.1,0.3,0.3,0.6,0.4,0.8c0.2,0.2,0.4,0.4,0.7,0.5c0.3,0.1,0.6,0.2,1,0.2c0.4,0,0.7-0.1,1-0.3c0.3-0.2,0.5-0.4,0.7-0.7l0,0
			c0,1-0.2,1.7-0.4,2.2c-0.3,0.5-0.7,0.7-1.2,0.7c-0.4,0-0.7-0.1-0.9-0.3C198.6,153.2,198.4,152.9,198.4,152.5z M201.3,149.4
			c0,0.2,0,0.4-0.1,0.6c-0.1,0.2-0.2,0.4-0.3,0.5c-0.1,0.1-0.3,0.3-0.5,0.4c-0.2,0.1-0.4,0.1-0.6,0.1c-0.2,0-0.4,0-0.6-0.1
			c-0.2-0.1-0.3-0.2-0.5-0.4c-0.1-0.1-0.2-0.3-0.3-0.5c-0.1-0.2-0.1-0.4-0.1-0.6c0-0.2,0-0.4,0.1-0.7c0.1-0.2,0.1-0.4,0.2-0.6
			c0.1-0.2,0.3-0.3,0.4-0.4c0.2-0.1,0.4-0.1,0.7-0.1c0.2,0,0.5,0,0.7,0.1c0.2,0.1,0.3,0.2,0.5,0.4c0.1,0.2,0.2,0.3,0.3,0.5
			C201.2,149,201.3,149.2,201.3,149.4z"/>
		<path id="XMLID_79_" class="st3" d="M206.5,154.3V147h-0.7c0,0.3-0.1,0.5-0.3,0.7c-0.1,0.2-0.3,0.3-0.5,0.4
			c-0.2,0.1-0.4,0.2-0.6,0.2c-0.2,0-0.5,0.1-0.7,0.1v0.7h1.9v5.3H206.5z"/>
		<path id="XMLID_76_" class="st3" d="M212.1,151.8h-2.5l2.5-3.6h0V151.8z M212.9,151.8V147h-0.7l-3.4,4.8v0.9h3.2v1.7h0.8v-1.7h1
			v-0.8H212.9z"/>
		<path id="XMLID_75_" class="st3" d="M215.2,153.2v1.2h1.2v-1.2H215.2z"/>
		<path id="XMLID_74_" class="st3" d="M222.1,147.9v-0.8h-3.6l-0.7,3.8l0.8,0c0.2-0.2,0.4-0.4,0.6-0.5c0.2-0.1,0.5-0.2,0.8-0.2
			c0.2,0,0.5,0,0.7,0.1c0.2,0.1,0.4,0.2,0.5,0.4c0.1,0.1,0.3,0.3,0.3,0.5c0.1,0.2,0.1,0.4,0.1,0.7c0,0.3,0,0.5-0.1,0.8
			c-0.1,0.2-0.2,0.4-0.3,0.5c-0.1,0.1-0.3,0.3-0.5,0.3c-0.2,0.1-0.4,0.1-0.6,0.1c-0.2,0-0.4,0-0.6-0.1c-0.2-0.1-0.3-0.2-0.5-0.3
			c-0.1-0.1-0.2-0.3-0.3-0.4c-0.1-0.2-0.1-0.3-0.1-0.5h-0.9c0,0.3,0.1,0.6,0.2,0.9c0.1,0.3,0.3,0.5,0.5,0.7c0.2,0.2,0.5,0.3,0.7,0.4
			c0.3,0.1,0.6,0.1,0.9,0.1c0.4,0,0.8-0.1,1.1-0.2c0.3-0.1,0.6-0.3,0.8-0.6c0.2-0.2,0.4-0.5,0.5-0.8c0.1-0.3,0.2-0.6,0.2-0.9
			c0-0.4-0.1-0.8-0.2-1.1c-0.1-0.3-0.3-0.6-0.5-0.8c-0.2-0.2-0.5-0.4-0.8-0.5c-0.3-0.1-0.6-0.2-0.9-0.2c-0.2,0-0.5,0-0.8,0.1
			c-0.2,0.1-0.5,0.2-0.6,0.4l0,0l0.4-2.1H222.1z"/>
		<path id="XMLID_73_" class="st3" d="M227.9,147.9v-0.8h-3.6l-0.7,3.8l0.8,0c0.2-0.2,0.4-0.4,0.6-0.5c0.2-0.1,0.5-0.2,0.8-0.2
			c0.2,0,0.5,0,0.7,0.1c0.2,0.1,0.4,0.2,0.5,0.4c0.1,0.1,0.3,0.3,0.3,0.5c0.1,0.2,0.1,0.4,0.1,0.7c0,0.3,0,0.5-0.1,0.8
			c-0.1,0.2-0.2,0.4-0.3,0.5c-0.1,0.1-0.3,0.3-0.5,0.3c-0.2,0.1-0.4,0.1-0.6,0.1c-0.2,0-0.4,0-0.6-0.1c-0.2-0.1-0.3-0.2-0.5-0.3
			c-0.1-0.1-0.2-0.3-0.3-0.4c-0.1-0.2-0.1-0.3-0.1-0.5h-0.9c0,0.3,0.1,0.6,0.2,0.9c0.1,0.3,0.3,0.5,0.5,0.7c0.2,0.2,0.5,0.3,0.7,0.4
			c0.3,0.1,0.6,0.1,0.9,0.1c0.4,0,0.8-0.1,1.1-0.2c0.3-0.1,0.6-0.3,0.8-0.6c0.2-0.2,0.4-0.5,0.5-0.8c0.1-0.3,0.2-0.6,0.2-0.9
			c0-0.4-0.1-0.8-0.2-1.1c-0.1-0.3-0.3-0.6-0.5-0.8c-0.2-0.2-0.5-0.4-0.8-0.5c-0.3-0.1-0.6-0.2-0.9-0.2c-0.2,0-0.5,0-0.8,0.1
			c-0.2,0.1-0.5,0.2-0.6,0.4l0,0l0.4-2.1H227.9z"/>
		<path id="XMLID_72_" class="st4" d="M235.4,152.7l2.3-2.3l-2.3-2.3"/>
		<circle id="XMLID_71_" class="st5" cx="44" cy="151.1" r="3.2"/>
		<path id="XMLID_70_" class="st3" d="M60.1,175.7v7.4h1v-7.4H60.1z"/>
		<path id="XMLID_69_" class="st3" d="M64.4,176.5v6.6h1v-6.6h2.5v-0.8h-5.9v0.8H64.4z"/>
		<path id="XMLID_68_" class="st3" d="M75.9,177.9h0.9c0-0.4-0.1-0.8-0.2-1.1c-0.1-0.3-0.3-0.5-0.6-0.7c-0.2-0.2-0.5-0.3-0.9-0.4
			c-0.3-0.1-0.7-0.1-1.1-0.1c-0.3,0-0.7,0-1,0.1c-0.3,0.1-0.6,0.2-0.9,0.4c-0.2,0.2-0.5,0.4-0.6,0.7c-0.2,0.3-0.2,0.6-0.2,1
			c0,0.3,0.1,0.6,0.2,0.9c0.1,0.2,0.3,0.4,0.5,0.6c0.2,0.1,0.5,0.3,0.8,0.3c0.3,0.1,0.6,0.2,0.9,0.2c0.3,0.1,0.6,0.1,0.9,0.2
			c0.3,0.1,0.5,0.1,0.8,0.2c0.2,0.1,0.4,0.2,0.5,0.4c0.1,0.2,0.2,0.4,0.2,0.6c0,0.3-0.1,0.5-0.2,0.7c-0.1,0.2-0.3,0.3-0.4,0.4
			c-0.2,0.1-0.4,0.2-0.6,0.2c-0.2,0-0.4,0.1-0.7,0.1c-0.3,0-0.5,0-0.8-0.1c-0.3-0.1-0.5-0.2-0.7-0.3c-0.2-0.1-0.4-0.3-0.5-0.6
			c-0.1-0.2-0.2-0.5-0.2-0.8h-0.9c0,0.5,0.1,0.8,0.2,1.2c0.2,0.3,0.4,0.6,0.7,0.8c0.3,0.2,0.6,0.4,1,0.5c0.4,0.1,0.8,0.2,1.2,0.2
			c0.3,0,0.7,0,1-0.1c0.3-0.1,0.7-0.2,0.9-0.4c0.3-0.2,0.5-0.4,0.7-0.7c0.2-0.3,0.3-0.6,0.3-1c0-0.4-0.1-0.7-0.2-0.9
			c-0.1-0.2-0.3-0.4-0.5-0.6c-0.2-0.2-0.5-0.3-0.8-0.4c-0.3-0.1-0.6-0.2-0.9-0.2c-0.3-0.1-0.6-0.1-0.9-0.2c-0.3-0.1-0.5-0.1-0.8-0.2
			c-0.2-0.1-0.4-0.2-0.5-0.3c-0.1-0.1-0.2-0.3-0.2-0.6c0-0.2,0-0.4,0.1-0.6c0.1-0.2,0.2-0.3,0.4-0.4c0.2-0.1,0.3-0.2,0.5-0.2
			c0.2,0,0.4-0.1,0.6-0.1c0.5,0,0.9,0.1,1.3,0.4C75.6,177,75.8,177.3,75.9,177.9z"/>
		<path id="XMLID_65_" class="st3" d="M78.8,180.4c0-0.3,0-0.6,0.1-0.9c0.1-0.3,0.2-0.5,0.4-0.6c0.2-0.2,0.3-0.3,0.5-0.4
			c0.2-0.1,0.4-0.1,0.7-0.1c0.2,0,0.4,0,0.6,0.1c0.2,0.1,0.4,0.2,0.5,0.4c0.2,0.2,0.3,0.4,0.4,0.6c0.1,0.2,0.1,0.5,0.1,0.9
			s0,0.6-0.1,0.9c-0.1,0.2-0.2,0.5-0.4,0.6c-0.2,0.2-0.3,0.3-0.5,0.4c-0.2,0.1-0.4,0.1-0.6,0.1c-0.2,0-0.4,0-0.7-0.1
			c-0.2-0.1-0.4-0.2-0.5-0.4c-0.2-0.2-0.3-0.4-0.4-0.6C78.9,181.1,78.8,180.8,78.8,180.4z M77.9,180.4c0,0.4,0.1,0.8,0.2,1.1
			c0.1,0.3,0.3,0.6,0.5,0.9c0.2,0.2,0.5,0.4,0.8,0.6c0.3,0.1,0.7,0.2,1.1,0.2c0.4,0,0.8-0.1,1.1-0.2c0.3-0.1,0.6-0.3,0.8-0.6
			c0.2-0.3,0.4-0.6,0.5-0.9c0.1-0.3,0.2-0.7,0.2-1.1s-0.1-0.8-0.2-1.1c-0.1-0.3-0.3-0.6-0.5-0.9c-0.2-0.3-0.5-0.5-0.8-0.6
			c-0.3-0.1-0.7-0.2-1.1-0.2c-0.4,0-0.8,0.1-1.1,0.2c-0.3,0.1-0.6,0.3-0.8,0.6c-0.2,0.2-0.4,0.5-0.5,0.9
			C77.9,179.7,77.9,180,77.9,180.4z"/>
		<path id="XMLID_64_" class="st3" d="M84.2,175.7v7.4h0.9v-7.4H84.2z"/>
		<path id="XMLID_63_" class="st3" d="M90.9,183.1v-5.4H90v3c0,0.2,0,0.5-0.1,0.7c-0.1,0.2-0.2,0.4-0.3,0.5
			c-0.1,0.2-0.3,0.3-0.5,0.4c-0.2,0.1-0.4,0.1-0.7,0.1c-0.3,0-0.6-0.1-0.8-0.3c-0.2-0.2-0.3-0.5-0.3-0.8v-3.6h-0.9v3.5
			c0,0.3,0,0.6,0.1,0.8c0.1,0.2,0.2,0.4,0.3,0.6c0.1,0.2,0.3,0.3,0.6,0.4c0.2,0.1,0.5,0.1,0.9,0.1c0.4,0,0.7-0.1,1-0.2
			c0.3-0.2,0.5-0.4,0.7-0.7h0v0.9H90.9z"/>
		<path id="XMLID_62_" class="st3" d="M93.4,177.8v-1.6h-0.9v1.6h-0.9v0.8h0.9v3.4c0,0.2,0,0.5,0.1,0.6c0,0.2,0.1,0.3,0.2,0.4
			c0.1,0.1,0.2,0.1,0.4,0.2c0.2,0,0.4,0,0.6,0h0.7v-0.8h-0.4c-0.1,0-0.3,0-0.3,0c-0.1,0-0.1,0-0.2-0.1c0,0-0.1-0.1-0.1-0.1
			c0-0.1,0-0.1,0-0.2v-3.3h1.1v-0.8H93.4z"/>
		<path id="XMLID_59_" class="st3" d="M96.4,176.8v-1.1h-0.9v1.1H96.4z M95.6,177.8v5.4h0.9v-5.4H95.6z"/>
		<path id="XMLID_56_" class="st3" d="M98.5,180.4c0-0.3,0-0.6,0.1-0.9c0.1-0.3,0.2-0.5,0.4-0.6c0.2-0.2,0.3-0.3,0.5-0.4
			c0.2-0.1,0.4-0.1,0.7-0.1c0.2,0,0.4,0,0.6,0.1c0.2,0.1,0.4,0.2,0.5,0.4c0.2,0.2,0.3,0.4,0.4,0.6c0.1,0.2,0.1,0.5,0.1,0.9
			s0,0.6-0.1,0.9c-0.1,0.2-0.2,0.5-0.4,0.6c-0.2,0.2-0.3,0.3-0.5,0.4c-0.2,0.1-0.4,0.1-0.6,0.1c-0.2,0-0.4,0-0.7-0.1
			c-0.2-0.1-0.4-0.2-0.5-0.4c-0.2-0.2-0.3-0.4-0.4-0.6C98.5,181.1,98.5,180.8,98.5,180.4z M97.5,180.4c0,0.4,0.1,0.8,0.2,1.1
			c0.1,0.3,0.3,0.6,0.5,0.9c0.2,0.2,0.5,0.4,0.8,0.6c0.3,0.1,0.7,0.2,1.1,0.2c0.4,0,0.8-0.1,1.1-0.2c0.3-0.1,0.6-0.3,0.8-0.6
			c0.2-0.3,0.4-0.6,0.5-0.9c0.1-0.3,0.2-0.7,0.2-1.1s-0.1-0.8-0.2-1.1c-0.1-0.3-0.3-0.6-0.5-0.9c-0.2-0.3-0.5-0.5-0.8-0.6
			c-0.3-0.1-0.7-0.2-1.1-0.2c-0.4,0-0.8,0.1-1.1,0.2s-0.6,0.3-0.8,0.6c-0.2,0.2-0.4,0.5-0.5,0.9C97.6,179.7,97.5,180,97.5,180.4z"/>
		<path id="XMLID_55_" class="st3" d="M103.8,177.8v5.4h0.9v-3c0-0.2,0-0.5,0.1-0.7c0.1-0.2,0.2-0.4,0.3-0.5
			c0.1-0.2,0.3-0.3,0.5-0.4c0.2-0.1,0.4-0.1,0.7-0.1c0.3,0,0.6,0.1,0.8,0.3c0.2,0.2,0.3,0.5,0.3,0.8v3.6h0.9v-3.5
			c0-0.3,0-0.6-0.1-0.8c-0.1-0.2-0.2-0.5-0.3-0.6c-0.1-0.2-0.3-0.3-0.6-0.4c-0.2-0.1-0.5-0.1-0.9-0.1c-0.8,0-1.4,0.3-1.7,1h0v-0.9
			H103.8z"/>
		<path id="XMLID_54_" class="st3" d="M110.1,181.4h-0.9c0,0.3,0.1,0.6,0.2,0.9c0.1,0.2,0.3,0.4,0.5,0.6c0.2,0.1,0.4,0.2,0.7,0.3
			c0.3,0.1,0.6,0.1,0.9,0.1c0.3,0,0.5,0,0.8-0.1c0.3,0,0.5-0.1,0.7-0.3c0.2-0.1,0.4-0.3,0.5-0.5c0.1-0.2,0.2-0.5,0.2-0.8
			c0-0.3-0.1-0.5-0.2-0.6c-0.1-0.2-0.2-0.3-0.4-0.4c-0.2-0.1-0.3-0.2-0.6-0.3c-0.2-0.1-0.4-0.1-0.6-0.2c-0.2,0-0.4-0.1-0.6-0.1
			c-0.2,0-0.4-0.1-0.6-0.2c-0.2-0.1-0.3-0.2-0.4-0.2c-0.1-0.1-0.2-0.2-0.2-0.4c0-0.1,0-0.2,0.1-0.3c0.1-0.1,0.2-0.2,0.3-0.2
			c0.1-0.1,0.2-0.1,0.4-0.1c0.1,0,0.3,0,0.4,0c0.1,0,0.3,0,0.4,0.1c0.1,0,0.3,0.1,0.4,0.1c0.1,0.1,0.2,0.2,0.3,0.3
			c0.1,0.1,0.1,0.3,0.1,0.4h0.9c0-0.3-0.1-0.6-0.2-0.8c-0.1-0.2-0.3-0.4-0.5-0.5c-0.2-0.1-0.4-0.2-0.7-0.3c-0.3-0.1-0.5-0.1-0.8-0.1
			c-0.2,0-0.5,0-0.7,0.1c-0.2,0.1-0.5,0.1-0.6,0.3c-0.2,0.1-0.3,0.3-0.5,0.5c-0.1,0.2-0.2,0.4-0.2,0.7c0,0.3,0.1,0.6,0.3,0.8
			c0.2,0.2,0.4,0.3,0.6,0.5c0.3,0.1,0.5,0.2,0.9,0.2c0.3,0.1,0.6,0.1,0.8,0.2c0.3,0.1,0.5,0.2,0.7,0.3c0.2,0.1,0.3,0.3,0.3,0.5
			c0,0.2,0,0.3-0.1,0.4c-0.1,0.1-0.2,0.2-0.3,0.2c-0.1,0.1-0.3,0.1-0.4,0.1c-0.2,0-0.3,0-0.4,0c-0.2,0-0.4,0-0.5-0.1
			c-0.2,0-0.3-0.1-0.5-0.2c-0.1-0.1-0.2-0.2-0.3-0.3C110.2,181.8,110.1,181.6,110.1,181.4z"/>
		<path id="XMLID_53_" class="st3" d="M205,179.8v0.8h3v-0.8H205z"/>
		<path id="XMLID_52_" class="st3" d="M213.5,176.7v-0.8h-3.6l-0.7,3.8l0.8,0c0.2-0.2,0.4-0.4,0.6-0.5c0.2-0.1,0.5-0.2,0.8-0.2
			c0.2,0,0.5,0,0.7,0.1c0.2,0.1,0.4,0.2,0.5,0.4c0.1,0.1,0.3,0.3,0.3,0.5c0.1,0.2,0.1,0.4,0.1,0.7c0,0.3,0,0.5-0.1,0.8
			c-0.1,0.2-0.2,0.4-0.3,0.5c-0.1,0.1-0.3,0.3-0.5,0.3c-0.2,0.1-0.4,0.1-0.6,0.1c-0.2,0-0.4,0-0.6-0.1c-0.2-0.1-0.3-0.2-0.5-0.3
			c-0.1-0.1-0.2-0.3-0.3-0.4c-0.1-0.2-0.1-0.3-0.1-0.5h-0.9c0,0.3,0.1,0.6,0.2,0.9s0.3,0.5,0.5,0.7c0.2,0.2,0.5,0.3,0.7,0.4
			c0.3,0.1,0.6,0.1,0.9,0.1c0.4,0,0.8-0.1,1.1-0.2c0.3-0.1,0.6-0.3,0.8-0.6c0.2-0.2,0.4-0.5,0.5-0.8c0.1-0.3,0.2-0.6,0.2-0.9
			c0-0.4-0.1-0.8-0.2-1.1c-0.1-0.3-0.3-0.6-0.5-0.8c-0.2-0.2-0.5-0.4-0.8-0.5c-0.3-0.1-0.6-0.2-0.9-0.2c-0.2,0-0.5,0-0.8,0.1
			c-0.2,0.1-0.5,0.2-0.6,0.4l0,0l0.4-2.1H213.5z"/>
		<path id="XMLID_51_" class="st3" d="M215.2,182v1.2h1.2V182H215.2z"/>
		<path id="XMLID_50_" class="st3" d="M222.5,176.6v-0.8h-4.8v0.8h3.9c-0.4,0.4-0.8,0.9-1.1,1.3c-0.3,0.5-0.6,1-0.9,1.5
			c-0.3,0.5-0.5,1.1-0.6,1.7c-0.2,0.6-0.3,1.2-0.3,1.8h1c0-0.6,0.1-1.2,0.3-1.8c0.2-0.6,0.4-1.2,0.6-1.8c0.3-0.6,0.5-1.1,0.9-1.6
			C221.8,177.4,222.2,177,222.5,176.6z"/>
		<path id="XMLID_49_" class="st3" d="M227.9,176.7v-0.8h-3.6l-0.7,3.8l0.8,0c0.2-0.2,0.4-0.4,0.6-0.5c0.2-0.1,0.5-0.2,0.8-0.2
			c0.2,0,0.5,0,0.7,0.1c0.2,0.1,0.4,0.2,0.5,0.4c0.1,0.1,0.3,0.3,0.3,0.5c0.1,0.2,0.1,0.4,0.1,0.7c0,0.3,0,0.5-0.1,0.8
			c-0.1,0.2-0.2,0.4-0.3,0.5c-0.1,0.1-0.3,0.3-0.5,0.3c-0.2,0.1-0.4,0.1-0.6,0.1c-0.2,0-0.4,0-0.6-0.1c-0.2-0.1-0.3-0.2-0.5-0.3
			c-0.1-0.1-0.2-0.3-0.3-0.4c-0.1-0.2-0.1-0.3-0.1-0.5h-0.9c0,0.3,0.1,0.6,0.2,0.9c0.1,0.3,0.3,0.5,0.5,0.7c0.2,0.2,0.5,0.3,0.7,0.4
			c0.3,0.1,0.6,0.1,0.9,0.1c0.4,0,0.8-0.1,1.1-0.2c0.3-0.1,0.6-0.3,0.8-0.6c0.2-0.2,0.4-0.5,0.5-0.8c0.1-0.3,0.2-0.6,0.2-0.9
			c0-0.4-0.1-0.8-0.2-1.1c-0.1-0.3-0.3-0.6-0.5-0.8c-0.2-0.2-0.5-0.4-0.8-0.5c-0.3-0.1-0.6-0.2-0.9-0.2c-0.2,0-0.5,0-0.8,0.1
			c-0.2,0.1-0.5,0.2-0.6,0.4l0,0l0.4-2.1H227.9z"/>
		<path id="XMLID_48_" class="st4" d="M235.4,181.5l2.3-2.3l-2.3-2.3"/>
		<circle id="XMLID_47_" class="st3" cx="44" cy="179.9" r="3.2"/>
		<path id="XMLID_46_" class="st7" d="M30.4,21.8h219.2c1.2,0,2.1,0.9,2.1,2.1V50H28.3V23.9C28.3,22.8,29.2,21.8,30.4,21.8z"/>
		<path id="XMLID_45_" class="st3" d="M99.4,31.9h1.4v4.7c0,0.3,0,0.5,0,0.8c0,0.3,0.1,0.5,0.2,0.8c0.1,0.2,0.3,0.4,0.6,0.5
			c0.3,0.1,0.6,0.2,1.1,0.2s0.8-0.1,1.1-0.2c0.3-0.1,0.4-0.3,0.6-0.5c0.1-0.2,0.2-0.5,0.2-0.8c0-0.3,0-0.5,0-0.8v-4.7h1.4V37
			c0,0.5-0.1,1-0.2,1.3c-0.2,0.4-0.4,0.7-0.7,1c-0.3,0.3-0.6,0.4-1,0.6c-0.4,0.1-0.9,0.2-1.3,0.2s-0.9-0.1-1.3-0.2
			c-0.4-0.1-0.8-0.3-1-0.6c-0.3-0.3-0.5-0.6-0.7-1c-0.2-0.4-0.2-0.8-0.2-1.3V31.9z"/>
		<path id="XMLID_44_" class="st3" d="M107.4,34.1h1.2V35l0,0c0.2-0.3,0.4-0.6,0.8-0.8c0.3-0.2,0.7-0.3,1-0.3c0.6,0,1.1,0.2,1.5,0.5
			c0.4,0.3,0.5,0.8,0.5,1.5v4h-1.3v-3.6c0-0.5-0.1-0.8-0.3-1c-0.2-0.2-0.5-0.3-0.8-0.3c-0.2,0-0.4,0-0.6,0.1
			c-0.2,0.1-0.3,0.2-0.4,0.3c-0.1,0.1-0.2,0.3-0.3,0.5c-0.1,0.2-0.1,0.4-0.1,0.6v3.4h-1.3V34.1z"/>
		<path id="XMLID_41_" class="st3" d="M113.8,34.1h1.2v0.8h0c0.2-0.3,0.4-0.6,0.8-0.7c0.3-0.1,0.7-0.2,1-0.2c0.5,0,0.9,0.1,1.2,0.2
			c0.3,0.2,0.6,0.4,0.9,0.7c0.2,0.3,0.4,0.6,0.5,1c0.1,0.4,0.2,0.8,0.2,1.2c0,0.4-0.1,0.8-0.2,1.1c-0.1,0.4-0.3,0.7-0.5,1
			c-0.2,0.3-0.5,0.5-0.8,0.7c-0.3,0.2-0.7,0.2-1.1,0.2c-0.2,0-0.4,0-0.6-0.1c-0.2,0-0.4-0.1-0.5-0.2c-0.2-0.1-0.3-0.2-0.5-0.3
			c-0.1-0.1-0.3-0.3-0.4-0.4h0v2.9h-1.3V34.1z M118.3,37c0-0.3,0-0.5-0.1-0.8c-0.1-0.2-0.2-0.5-0.3-0.6c-0.1-0.2-0.3-0.3-0.5-0.5
			c-0.2-0.1-0.4-0.2-0.7-0.2c-0.5,0-0.9,0.2-1.2,0.6c-0.3,0.4-0.4,0.9-0.4,1.5c0,0.3,0,0.6,0.1,0.8c0.1,0.2,0.2,0.5,0.3,0.6
			c0.1,0.2,0.3,0.3,0.5,0.4c0.2,0.1,0.4,0.2,0.7,0.2c0.3,0,0.5-0.1,0.7-0.2c0.2-0.1,0.4-0.3,0.5-0.5c0.1-0.2,0.2-0.4,0.3-0.6
			C118.3,37.5,118.3,37.3,118.3,37z"/>
		<path id="XMLID_38_" class="st3" d="M125.5,38.6c0,0.2,0,0.3,0.1,0.3c0,0.1,0.1,0.1,0.2,0.1c0,0,0.1,0,0.1,0s0.1,0,0.2,0v0.9
			c0,0-0.1,0-0.2,0c-0.1,0-0.1,0-0.2,0.1c-0.1,0-0.1,0-0.2,0c-0.1,0-0.1,0-0.2,0c-0.3,0-0.5-0.1-0.6-0.2c-0.2-0.1-0.3-0.3-0.3-0.5
			c-0.3,0.2-0.6,0.4-0.9,0.5c-0.4,0.1-0.7,0.2-1.1,0.2c-0.3,0-0.5,0-0.8-0.1c-0.2-0.1-0.5-0.2-0.6-0.3c-0.2-0.1-0.3-0.3-0.4-0.5
			c-0.1-0.2-0.2-0.5-0.2-0.8c0-0.4,0.1-0.6,0.2-0.9c0.1-0.2,0.3-0.4,0.5-0.5c0.2-0.1,0.5-0.2,0.7-0.3c0.3-0.1,0.5-0.1,0.8-0.1
			c0.2,0,0.5-0.1,0.7-0.1c0.2,0,0.4-0.1,0.5-0.1c0.2,0,0.3-0.1,0.4-0.2c0.1-0.1,0.1-0.2,0.1-0.4c0-0.2,0-0.3-0.1-0.4
			c-0.1-0.1-0.2-0.2-0.3-0.2c-0.1-0.1-0.2-0.1-0.4-0.1c-0.1,0-0.3,0-0.4,0c-0.4,0-0.7,0.1-0.9,0.2c-0.2,0.1-0.4,0.4-0.4,0.7h-1.3
			c0-0.4,0.1-0.7,0.3-0.9c0.2-0.2,0.4-0.4,0.6-0.6c0.2-0.1,0.5-0.3,0.8-0.3c0.3-0.1,0.6-0.1,0.9-0.1c0.3,0,0.6,0,0.8,0.1
			c0.3,0.1,0.5,0.2,0.7,0.3c0.2,0.1,0.4,0.3,0.5,0.5c0.1,0.2,0.2,0.5,0.2,0.8V38.6z M124.2,37c-0.2,0.1-0.4,0.2-0.7,0.2
			c-0.3,0-0.6,0.1-0.9,0.1c-0.1,0-0.3,0.1-0.4,0.1c-0.1,0-0.2,0.1-0.3,0.2c-0.1,0.1-0.2,0.2-0.2,0.3c-0.1,0.1-0.1,0.3-0.1,0.4
			c0,0.1,0,0.3,0.1,0.4c0.1,0.1,0.2,0.2,0.3,0.2c0.1,0.1,0.2,0.1,0.4,0.1c0.1,0,0.3,0,0.4,0c0.1,0,0.3,0,0.5-0.1
			c0.2,0,0.3-0.1,0.5-0.2c0.1-0.1,0.3-0.2,0.4-0.3c0.1-0.1,0.1-0.3,0.1-0.5V37z"/>
		<path id="XMLID_35_" class="st3" d="M126.9,31.9h1.3v1.2h-1.3V31.9z M126.9,34.1h1.3v5.8h-1.3V34.1z"/>
		<path id="XMLID_32_" class="st3" d="M135,39.9h-1.2v-0.8h0c-0.2,0.3-0.4,0.6-0.8,0.7c-0.3,0.1-0.7,0.2-1,0.2
			c-0.5,0-0.9-0.1-1.2-0.2c-0.3-0.2-0.6-0.4-0.8-0.7c-0.2-0.3-0.4-0.6-0.5-1c-0.1-0.4-0.2-0.8-0.2-1.2c0-0.5,0.1-1,0.2-1.4
			c0.1-0.4,0.3-0.7,0.6-0.9c0.2-0.2,0.5-0.4,0.8-0.5c0.3-0.1,0.6-0.2,0.9-0.2c0.2,0,0.4,0,0.5,0.1c0.2,0,0.4,0.1,0.5,0.2
			c0.2,0.1,0.3,0.2,0.5,0.3c0.1,0.1,0.3,0.2,0.4,0.4h0v-3h1.3V39.9z M130.6,37.1c0,0.2,0,0.5,0.1,0.7c0.1,0.2,0.2,0.5,0.3,0.6
			c0.1,0.2,0.3,0.3,0.5,0.4c0.2,0.1,0.4,0.2,0.7,0.2c0.3,0,0.5-0.1,0.7-0.2c0.2-0.1,0.4-0.3,0.5-0.5c0.1-0.2,0.2-0.4,0.3-0.6
			c0.1-0.2,0.1-0.5,0.1-0.8c0-0.6-0.1-1.1-0.4-1.5c-0.3-0.4-0.7-0.5-1.2-0.5c-0.3,0-0.6,0.1-0.8,0.2c-0.2,0.1-0.4,0.3-0.5,0.5
			c-0.1,0.2-0.2,0.4-0.3,0.7C130.6,36.6,130.6,36.8,130.6,37.1z"/>
		<path id="XMLID_29_" class="st3" d="M139.6,31.9h1.3v1.2h-1.3V31.9z M139.6,34.1h1.3v5.8h-1.3V34.1z"/>
		<path id="XMLID_28_" class="st3" d="M142.2,34.1h1.2V35l0,0c0.2-0.3,0.4-0.6,0.8-0.8c0.3-0.2,0.7-0.3,1-0.3c0.6,0,1.1,0.2,1.5,0.5
			c0.4,0.3,0.5,0.8,0.5,1.5v4H146v-3.6c0-0.5-0.1-0.8-0.3-1c-0.2-0.2-0.5-0.3-0.8-0.3c-0.2,0-0.4,0-0.6,0.1
			c-0.2,0.1-0.3,0.2-0.4,0.3c-0.1,0.1-0.2,0.3-0.3,0.5c-0.1,0.2-0.1,0.4-0.1,0.6v3.4h-1.3V34.1z"/>
		<path id="XMLID_27_" class="st3" d="M148.1,34.1h1.4l1.5,4.4h0l1.4-4.4h1.3l-2.1,5.8h-1.4L148.1,34.1z"/>
		<path id="XMLID_24_" class="st3" d="M157.1,40.1c-0.5,0-0.9-0.1-1.2-0.2c-0.4-0.2-0.7-0.4-0.9-0.6c-0.2-0.3-0.4-0.6-0.6-1
			c-0.1-0.4-0.2-0.8-0.2-1.2c0-0.4,0.1-0.8,0.2-1.2c0.1-0.4,0.3-0.7,0.6-1c0.3-0.3,0.6-0.5,0.9-0.6c0.4-0.2,0.8-0.2,1.2-0.2
			c0.5,0,0.9,0.1,1.2,0.2c0.4,0.1,0.7,0.4,0.9,0.6c0.3,0.3,0.4,0.6,0.6,1c0.1,0.4,0.2,0.8,0.2,1.2c0,0.4-0.1,0.9-0.2,1.2
			c-0.1,0.4-0.3,0.7-0.6,1c-0.2,0.3-0.6,0.5-0.9,0.6C158,40,157.6,40.1,157.1,40.1z M157.1,39.1c0.3,0,0.5-0.1,0.7-0.2
			c0.2-0.1,0.4-0.3,0.5-0.5c0.1-0.2,0.2-0.4,0.3-0.6c0.1-0.2,0.1-0.5,0.1-0.8c0-0.2,0-0.5-0.1-0.7c-0.1-0.2-0.2-0.5-0.3-0.6
			c-0.1-0.2-0.3-0.4-0.5-0.5c-0.2-0.1-0.5-0.2-0.7-0.2c-0.3,0-0.5,0.1-0.7,0.2c-0.2,0.1-0.4,0.3-0.5,0.5c-0.1,0.2-0.2,0.4-0.3,0.6
			c-0.1,0.2-0.1,0.5-0.1,0.7c0,0.3,0,0.5,0.1,0.8c0.1,0.2,0.2,0.5,0.3,0.6c0.1,0.2,0.3,0.4,0.5,0.5C156.6,39,156.8,39.1,157.1,39.1z
			"/>
		<path id="XMLID_21_" class="st3" d="M161.1,31.9h1.3v1.2h-1.3V31.9z M161.1,34.1h1.3v5.8h-1.3V34.1z"/>
		<path id="XMLID_20_" class="st3" d="M167.7,36.1c-0.1-0.4-0.2-0.6-0.4-0.8c-0.2-0.2-0.5-0.3-0.9-0.3c-0.2,0-0.3,0-0.5,0.1
			c-0.2,0.1-0.4,0.2-0.5,0.3c-0.2,0.1-0.3,0.4-0.4,0.6c-0.1,0.3-0.2,0.6-0.2,1.1c0,0.2,0,0.5,0.1,0.7c0.1,0.2,0.1,0.5,0.3,0.6
			c0.1,0.2,0.3,0.3,0.5,0.5c0.2,0.1,0.4,0.2,0.7,0.2c0.4,0,0.7-0.1,0.9-0.3c0.2-0.2,0.4-0.6,0.5-1h1.3c-0.1,0.8-0.4,1.3-0.9,1.7
			c-0.4,0.4-1,0.6-1.8,0.6c-0.5,0-0.9-0.1-1.2-0.2c-0.3-0.2-0.6-0.4-0.9-0.6c-0.2-0.3-0.4-0.6-0.5-1c-0.1-0.4-0.2-0.8-0.2-1.2
			c0-0.4,0.1-0.8,0.2-1.2s0.3-0.7,0.5-1c0.2-0.3,0.5-0.5,0.9-0.7c0.4-0.2,0.8-0.2,1.3-0.2c0.3,0,0.7,0,1,0.1
			c0.3,0.1,0.6,0.2,0.8,0.4c0.2,0.2,0.4,0.4,0.6,0.6c0.1,0.3,0.2,0.6,0.3,0.9H167.7z"/>
		<path id="XMLID_17_" class="st3" d="M174,36.5c0-0.2-0.1-0.4-0.1-0.6c-0.1-0.2-0.2-0.3-0.3-0.5c-0.1-0.1-0.3-0.3-0.4-0.3
			c-0.2-0.1-0.4-0.1-0.6-0.1c-0.2,0-0.4,0-0.6,0.1c-0.2,0.1-0.3,0.2-0.5,0.3c-0.1,0.1-0.2,0.3-0.3,0.5c-0.1,0.2-0.1,0.4-0.1,0.6H174
			z M171,37.4c0,0.2,0,0.4,0.1,0.6c0.1,0.2,0.2,0.4,0.3,0.5c0.1,0.2,0.3,0.3,0.5,0.4c0.2,0.1,0.4,0.1,0.7,0.1c0.4,0,0.7-0.1,0.9-0.2
			c0.2-0.2,0.4-0.4,0.5-0.7h1.2c-0.1,0.3-0.2,0.6-0.3,0.8c-0.2,0.2-0.4,0.5-0.6,0.6c-0.2,0.2-0.5,0.3-0.8,0.4
			c-0.3,0.1-0.6,0.1-0.9,0.1c-0.5,0-0.9-0.1-1.2-0.2c-0.4-0.1-0.6-0.4-0.9-0.6c-0.2-0.3-0.4-0.6-0.5-1c-0.1-0.4-0.2-0.8-0.2-1.2
			c0-0.4,0.1-0.8,0.2-1.2c0.1-0.4,0.3-0.7,0.6-1c0.2-0.3,0.5-0.5,0.9-0.7c0.3-0.2,0.7-0.2,1.2-0.2c0.5,0,0.9,0.1,1.2,0.3
			c0.4,0.2,0.7,0.4,0.9,0.8c0.2,0.3,0.4,0.7,0.5,1.1c0.1,0.4,0.1,0.8,0.1,1.3H171z"/>
		<path id="XMLID_16_" class="st3" d="M177.2,38.1c0,0.4,0.2,0.6,0.4,0.8c0.2,0.1,0.5,0.2,0.9,0.2c0.1,0,0.3,0,0.4,0
			c0.2,0,0.3-0.1,0.4-0.1c0.1-0.1,0.2-0.1,0.3-0.2c0.1-0.1,0.1-0.2,0.1-0.4c0-0.2-0.1-0.3-0.2-0.4c-0.1-0.1-0.3-0.2-0.4-0.2
			c-0.2-0.1-0.4-0.1-0.6-0.2c-0.2,0-0.5-0.1-0.7-0.1c-0.2-0.1-0.5-0.1-0.7-0.2c-0.2-0.1-0.4-0.2-0.6-0.3c-0.2-0.1-0.3-0.3-0.4-0.5
			c-0.1-0.2-0.2-0.4-0.2-0.7c0-0.3,0.1-0.6,0.2-0.8c0.2-0.2,0.4-0.4,0.6-0.5c0.2-0.1,0.5-0.2,0.8-0.3c0.3-0.1,0.6-0.1,0.8-0.1
			c0.3,0,0.6,0,0.9,0.1c0.3,0.1,0.5,0.2,0.7,0.3c0.2,0.1,0.4,0.3,0.5,0.6c0.1,0.2,0.2,0.5,0.3,0.8h-1.3c-0.1-0.3-0.2-0.5-0.4-0.6
			c-0.2-0.1-0.5-0.2-0.8-0.2c-0.1,0-0.2,0-0.3,0c-0.1,0-0.2,0-0.3,0.1c-0.1,0-0.2,0.1-0.3,0.2c-0.1,0.1-0.1,0.2-0.1,0.3
			c0,0.2,0.1,0.3,0.2,0.4c0.1,0.1,0.3,0.2,0.4,0.2c0.2,0.1,0.4,0.1,0.6,0.2c0.2,0,0.5,0.1,0.7,0.1c0.2,0.1,0.5,0.1,0.7,0.2
			c0.2,0.1,0.4,0.2,0.6,0.3c0.2,0.1,0.3,0.3,0.4,0.5c0.1,0.2,0.2,0.4,0.2,0.7c0,0.3-0.1,0.6-0.2,0.9c-0.2,0.2-0.4,0.4-0.6,0.6
			c-0.2,0.1-0.5,0.3-0.8,0.3c-0.3,0.1-0.6,0.1-0.9,0.1c-0.4,0-0.7,0-1-0.1c-0.3-0.1-0.6-0.2-0.8-0.4c-0.2-0.2-0.4-0.4-0.5-0.6
			c-0.1-0.3-0.2-0.6-0.2-0.9H177.2z"/>
		<path id="XMLID_15_" class="st3" d="M116.8,64.6V63h-10.6v1.9h8.6c-0.9,0.9-1.7,1.9-2.4,3c-0.7,1.1-1.4,2.2-2,3.5
			c-0.6,1.2-1,2.5-1.4,3.8c-0.4,1.3-0.6,2.7-0.7,4.1h2.2c0.1-1.3,0.3-2.6,0.6-4c0.4-1.4,0.8-2.7,1.4-4c0.6-1.3,1.2-2.5,1.9-3.6
			C115.1,66.4,115.9,65.5,116.8,64.6z"/>
		<path id="XMLID_11_" class="st3" d="M121.4,66.9c0-0.4,0.1-0.8,0.2-1.1c0.2-0.3,0.4-0.6,0.6-0.8c0.3-0.2,0.6-0.4,0.9-0.5
			c0.4-0.1,0.7-0.2,1.1-0.2c0.8,0,1.5,0.2,2,0.6c0.5,0.4,0.8,1,0.8,1.9c0,0.8-0.3,1.5-0.8,1.9c-0.5,0.5-1.2,0.7-1.9,0.7
			c-0.4,0-0.8-0.1-1.1-0.2c-0.4-0.1-0.7-0.3-0.9-0.5c-0.3-0.2-0.5-0.5-0.6-0.8C121.5,67.8,121.4,67.4,121.4,66.9z M119.3,66.9
			c0,0.7,0.2,1.4,0.6,2.1c0.4,0.6,1,1.1,1.7,1.3c-0.9,0.3-1.6,0.9-2.1,1.6c-0.5,0.7-0.7,1.6-0.7,2.5c0,0.8,0.1,1.6,0.4,2.2
			c0.3,0.6,0.7,1.1,1.2,1.6c0.5,0.4,1.1,0.7,1.8,0.9c0.7,0.2,1.4,0.3,2.2,0.3c0.8,0,1.5-0.1,2.1-0.3c0.7-0.2,1.2-0.5,1.7-1
			c0.5-0.4,0.9-1,1.2-1.6c0.3-0.6,0.4-1.3,0.4-2.1c0-1-0.2-1.9-0.7-2.6c-0.5-0.7-1.2-1.2-2.2-1.5c0.7-0.3,1.2-0.8,1.6-1.4
			c0.4-0.6,0.6-1.3,0.6-2c0-0.5-0.1-1-0.3-1.5c-0.2-0.5-0.5-1-0.9-1.3c-0.4-0.4-0.9-0.7-1.5-1c-0.6-0.2-1.4-0.4-2.3-0.4
			c-0.6,0-1.2,0.1-1.8,0.3c-0.6,0.2-1.1,0.5-1.5,0.8c-0.4,0.4-0.8,0.8-1.1,1.3C119.5,65.6,119.3,66.2,119.3,66.9z M120.8,74.5
			c0-0.5,0.1-0.9,0.3-1.3c0.2-0.4,0.4-0.7,0.7-1c0.3-0.3,0.7-0.5,1.1-0.6c0.4-0.2,0.9-0.2,1.4-0.2c0.5,0,0.9,0.1,1.3,0.3
			c0.4,0.2,0.8,0.4,1.1,0.6c0.3,0.3,0.5,0.6,0.7,1c0.2,0.4,0.3,0.8,0.3,1.2c0,0.5-0.1,0.9-0.3,1.3c-0.2,0.4-0.4,0.7-0.7,1
			c-0.3,0.3-0.6,0.5-1.1,0.7c-0.4,0.2-0.9,0.2-1.3,0.2c-1,0-1.9-0.3-2.5-0.8C121.2,76.3,120.8,75.5,120.8,74.5z"/>
		<path id="XMLID_8_" class="st3" d="M133.8,71c0-0.4,0-0.8,0-1.3c0-0.5,0.1-1,0.1-1.5c0.1-0.5,0.2-1,0.3-1.4
			c0.1-0.5,0.3-0.9,0.6-1.2c0.3-0.4,0.6-0.6,1-0.9c0.4-0.2,0.9-0.3,1.4-0.3c0.6,0,1,0.1,1.4,0.3c0.4,0.2,0.7,0.5,1,0.9
			c0.3,0.3,0.5,0.7,0.6,1.2c0.1,0.5,0.2,0.9,0.3,1.4c0.1,0.5,0.1,1,0.1,1.5c0,0.5,0,0.9,0,1.3c0,0.6,0,1.3-0.1,2.1
			c0,0.8-0.2,1.5-0.4,2.2c-0.2,0.7-0.5,1.2-1,1.7c-0.5,0.5-1.1,0.7-1.9,0.7s-1.5-0.2-1.9-0.7c-0.5-0.5-0.8-1-1-1.7
			c-0.2-0.7-0.3-1.4-0.4-2.2C133.8,72.3,133.8,71.6,133.8,71z M131.7,71.1c0,0.6,0,1.2,0,1.9c0,0.6,0.1,1.3,0.2,1.9
			c0.1,0.6,0.3,1.2,0.5,1.8c0.2,0.5,0.5,1,1,1.4c0.4,0.4,0.9,0.8,1.5,1c0.6,0.2,1.4,0.3,2.2,0.3c0.9,0,1.6-0.1,2.2-0.3
			c0.6-0.2,1.1-0.6,1.5-1c0.4-0.4,0.7-0.9,1-1.4c0.2-0.6,0.4-1.1,0.5-1.8c0.1-0.6,0.2-1.3,0.2-1.9c0-0.6,0-1.3,0-1.9s0-1.2,0-1.9
			c0-0.6-0.1-1.3-0.2-1.9c-0.1-0.6-0.3-1.2-0.5-1.8c-0.2-0.6-0.5-1-1-1.5c-0.4-0.4-0.9-0.8-1.5-1c-0.6-0.2-1.3-0.4-2.2-0.4
			c-0.9,0-1.6,0.1-2.2,0.4c-0.6,0.2-1.1,0.6-1.5,1c-0.4,0.4-0.7,0.9-1,1.5s-0.4,1.1-0.5,1.8c-0.1,0.6-0.2,1.3-0.2,1.9
			C131.7,69.8,131.7,70.4,131.7,71.1z"/>
		<path id="XMLID_7_" class="st3" d="M145.5,76.5v2.6h2.6v-2.6H145.5z"/>
		<path id="XMLID_6_" class="st3" d="M158.3,79.1V62.7h-1.5c-0.1,0.6-0.3,1.1-0.6,1.5c-0.3,0.4-0.7,0.7-1.1,1
			c-0.4,0.2-0.9,0.4-1.4,0.5c-0.5,0.1-1.1,0.1-1.6,0.1v1.6h4.3v11.8H158.3z"/>
		<path id="XMLID_5_" class="st3" d="M168,69.7v1.7c0.4,0,0.8-0.1,1.2-0.1c0.5,0,1,0.1,1.4,0.2c0.4,0.1,0.8,0.3,1.1,0.6
			c0.3,0.3,0.6,0.6,0.7,1c0.2,0.4,0.3,0.8,0.3,1.3c0,0.5-0.1,0.9-0.3,1.3c-0.2,0.4-0.4,0.7-0.8,1c-0.3,0.3-0.7,0.5-1.1,0.6
			c-0.4,0.1-0.9,0.2-1.4,0.2c-1.1,0-2-0.3-2.6-1c-0.6-0.7-0.9-1.6-0.9-2.6h-2c0,0.9,0.1,1.6,0.3,2.3c0.3,0.7,0.6,1.2,1.1,1.7
			c0.5,0.4,1.1,0.8,1.7,1c0.7,0.2,1.4,0.3,2.3,0.3c0.8,0,1.5-0.1,2.2-0.3c0.7-0.2,1.3-0.5,1.8-1c0.5-0.4,0.9-0.9,1.2-1.6
			c0.3-0.6,0.5-1.4,0.5-2.2c0-1-0.2-1.8-0.7-2.6c-0.5-0.7-1.2-1.2-2.2-1.4v0c0.6-0.3,1.2-0.7,1.6-1.3c0.4-0.6,0.6-1.2,0.6-2
			c0-0.8-0.1-1.4-0.4-2c-0.2-0.6-0.6-1-1-1.4c-0.4-0.4-1-0.6-1.6-0.8c-0.6-0.2-1.3-0.3-2-0.3c-0.8,0-1.5,0.1-2.2,0.4
			c-0.6,0.3-1.1,0.6-1.6,1.1c-0.4,0.5-0.7,1-1,1.7c-0.2,0.6-0.3,1.4-0.4,2.2h2c0-0.5,0.1-0.9,0.2-1.4c0.1-0.4,0.3-0.8,0.6-1.1
			c0.3-0.3,0.6-0.6,1-0.8c0.4-0.2,0.9-0.3,1.4-0.3c0.8,0,1.5,0.2,2.1,0.7c0.6,0.4,0.8,1.1,0.8,2c0,0.4-0.1,0.8-0.3,1.2
			c-0.2,0.3-0.4,0.6-0.7,0.9c-0.3,0.2-0.6,0.4-1,0.5c-0.4,0.1-0.8,0.2-1.2,0.2h-0.4c-0.1,0-0.2,0-0.2,0
			C168.2,69.8,168.1,69.7,168,69.7z"/>
		<path id="XMLID_4_" class="st8" d="M28,91.9h224v8H28V91.9z"/>
		<path id="XMLID_3_" class="st8" d="M28,128.7h224v8H28V128.7z"/>
	</g>
</g>
</svg>
