<?xml version="1.0" encoding="utf-8"?>
<!-- Generator: Adobe Illustrator 24.0.1, SVG Export Plug-In . SVG Version: 6.00 Build 0)  -->
<svg version="1.1" id="Layer_1" xmlns="http://www.w3.org/2000/svg" xmlns:xlink="http://www.w3.org/1999/xlink" x="0px" y="0px"
	 viewBox="0 0 279.6 218.3" style="enable-background:new 0 0 279.6 218.3;" xml:space="preserve">
<style type="text/css">
	.st0{fill:#FFFFFF;}
	.st1{clip-path:url(#XMLID_182_);}
	.st2{fill:none;stroke:#DFE0E2;stroke-width:0.5945;}
	.st3{fill:#3376C2;}
	.st4{fill:#5A5F6C;}
	.st5{fill:#284664;}
	.st6{fill-rule:evenodd;clip-rule:evenodd;fill:#5A5F6C;}
</style>
<path id="XMLID_181_" class="st0" d="M242.9,196.7H36.7c-4.9,0-8.9-4-8.9-8.9V30.4c0-4.9,4-8.9,8.9-8.9H243c4.9,0,8.9,4,8.9,8.9
	v157.5C251.8,192.8,247.8,196.7,242.9,196.7z"/>
<g id="XMLID_1_">
	<defs>
		<path id="XMLID_422_" d="M242.9,196.7H36.7c-4.9,0-8.9-4-8.9-8.9V30.4c0-4.9,4-8.9,8.9-8.9H243c4.9,0,8.9,4,8.9,8.9v157.5
			C251.8,192.8,247.8,196.7,242.9,196.7z"/>
	</defs>
	<clipPath id="XMLID_182_">
		<use xlink:href="#XMLID_422_"  style="overflow:visible;"/>
	</clipPath>
	<g id="XMLID_2_" class="st1">
		<g id="XMLID_87_">
			<path id="XMLID_89_" class="st0" d="M39.1,22.3h201.3c1.3,0,2.4,1.1,2.4,2.4v63.4c0,1.3-1.1,2.4-2.4,2.4H39.1
				c-1.3,0-2.4-1.1-2.4-2.4V24.7C36.8,23.4,37.8,22.3,39.1,22.3z"/>
			<path id="XMLID_88_" class="st2" d="M39.1,22.6h201.3c1.1,0,2.1,0.9,2.1,2.1v63.4c0,1.1-0.9,2.1-2.1,2.1H39.1
				c-1.1,0-2.1-0.9-2.1-2.1V24.7C37.1,23.6,38,22.6,39.1,22.6z"/>
		</g>
		<path id="XMLID_86_" class="st3" d="M240.5,22.3h-11.9l14.3,11.9v-9.5C242.9,23.4,241.8,22.3,240.5,22.3z"/>
		<g id="XMLID_83_">
			<path id="XMLID_85_" class="st0" d="M39.1,96.9h201.3c1.3,0,2.4,1.1,2.4,2.4v63.4c0,1.3-1.1,2.4-2.4,2.4H39.1
				c-1.3,0-2.4-1.1-2.4-2.4V99.2C36.8,97.9,37.8,96.9,39.1,96.9z"/>
			<path id="XMLID_84_" class="st2" d="M39.1,97.2h201.3c1.1,0,2.1,0.9,2.1,2.1v63.4c0,1.1-0.9,2.1-2.1,2.1H39.1
				c-1.1,0-2.1-0.9-2.1-2.1V99.2C37.1,98.1,38,97.2,39.1,97.2z"/>
		</g>
		<g id="XMLID_81_">
			<path id="XMLID_82_" class="st2" d="M39.1,22.6h201.3c1.1,0,2.1,0.9,2.1,2.1v63.4c0,1.1-0.9,2.1-2.1,2.1H39.1
				c-1.1,0-2.1-0.9-2.1-2.1V24.7C37.1,23.6,38,22.6,39.1,22.6z"/>
		</g>
		<path id="XMLID_80_" class="st4" d="M49.5,111.3h-2.4l7.1-6.5l-2.8,4.9h2.8l-7.1,6.2L49.5,111.3z"/>
		<path id="XMLID_79_" class="st5" d="M64.5,106.4v7.9h1.6v-5.6h0l1.9,5.6h1.3l1.9-5.6h0v5.6H73v-7.9h-2.5l-1.8,5.4h0l-1.9-5.4H64.5
			z"/>
		<path id="XMLID_76_" class="st5" d="M74.3,110.3c0-0.4,0.1-0.7,0.3-0.9c0.2-0.2,0.4-0.4,0.6-0.6c0.3-0.1,0.5-0.3,0.8-0.3
			c0.3-0.1,0.6-0.1,1-0.1c0.3,0,0.6,0,0.9,0.1c0.3,0,0.6,0.1,0.8,0.2c0.2,0.1,0.4,0.3,0.6,0.5c0.2,0.2,0.2,0.5,0.2,0.8v3
			c0,0.3,0,0.5,0,0.7c0,0.2,0.1,0.4,0.2,0.5h-1.6c0-0.1-0.1-0.2-0.1-0.3c0-0.1,0-0.2,0-0.3c-0.3,0.3-0.5,0.4-0.9,0.5
			c-0.3,0.1-0.7,0.2-1,0.2c-0.3,0-0.5,0-0.8-0.1c-0.2-0.1-0.4-0.2-0.6-0.3c-0.2-0.1-0.3-0.3-0.4-0.5c-0.1-0.2-0.1-0.5-0.1-0.8
			c0-0.3,0.1-0.6,0.2-0.8c0.1-0.2,0.3-0.4,0.4-0.5c0.2-0.1,0.4-0.2,0.6-0.3c0.2-0.1,0.5-0.1,0.7-0.2c0.2,0,0.5-0.1,0.7-0.1
			c0.2,0,0.4-0.1,0.6-0.1c0.2,0,0.3-0.1,0.4-0.2c0.1-0.1,0.2-0.2,0.1-0.4c0-0.2,0-0.3-0.1-0.4c-0.1-0.1-0.1-0.2-0.2-0.2
			c-0.1-0.1-0.2-0.1-0.3-0.1c-0.1,0-0.2,0-0.4,0c-0.3,0-0.6,0.1-0.7,0.2c-0.2,0.1-0.3,0.4-0.3,0.7H74.3z M77.9,111.5
			c-0.1,0.1-0.2,0.1-0.3,0.1c-0.1,0-0.2,0.1-0.3,0.1c-0.1,0-0.2,0-0.4,0.1c-0.1,0-0.3,0-0.4,0.1c-0.1,0-0.2,0.1-0.4,0.1
			c-0.1,0-0.2,0.1-0.3,0.2c-0.1,0.1-0.1,0.1-0.2,0.2s-0.1,0.2-0.1,0.4c0,0.1,0,0.3,0.1,0.4c0.1,0.1,0.1,0.2,0.2,0.2
			c0.1,0.1,0.2,0.1,0.3,0.1c0.1,0,0.2,0,0.4,0c0.3,0,0.6-0.1,0.7-0.2c0.2-0.1,0.3-0.2,0.4-0.4c0.1-0.1,0.1-0.3,0.1-0.4
			c0-0.1,0-0.3,0-0.4V111.5z"/>
		<path id="XMLID_75_" class="st5" d="M82.7,108.6v-1.7h-1.6v1.7h-1v1.1h1v3.4c0,0.3,0,0.5,0.1,0.7c0.1,0.2,0.2,0.3,0.4,0.4
			c0.2,0.1,0.4,0.2,0.6,0.2c0.2,0,0.5,0.1,0.7,0.1c0.2,0,0.3,0,0.5,0c0.2,0,0.3,0,0.4,0v-1.2c-0.1,0-0.2,0-0.2,0c-0.1,0-0.2,0-0.3,0
			c-0.3,0-0.4,0-0.5-0.1c-0.1-0.1-0.1-0.3-0.1-0.5v-2.8h1.2v-1.1H82.7z"/>
		<path id="XMLID_74_" class="st5" d="M88.6,110.6h1.5c0-0.4-0.1-0.7-0.3-1c-0.2-0.3-0.4-0.5-0.6-0.7c-0.2-0.2-0.5-0.3-0.8-0.4
			c-0.3-0.1-0.6-0.1-1-0.1c-0.5,0-0.9,0.1-1.2,0.2s-0.7,0.4-0.9,0.7c-0.3,0.3-0.4,0.6-0.6,1c-0.1,0.4-0.2,0.8-0.2,1.2
			c0,0.4,0.1,0.8,0.2,1.2c0.1,0.4,0.3,0.7,0.6,0.9c0.3,0.3,0.6,0.5,0.9,0.6c0.4,0.1,0.8,0.2,1.2,0.2c0.8,0,1.4-0.2,1.9-0.6
			c0.5-0.4,0.8-1,0.9-1.7h-1.5c-0.1,0.4-0.2,0.6-0.4,0.9c-0.2,0.2-0.5,0.3-0.9,0.3c-0.2,0-0.5-0.1-0.6-0.2s-0.3-0.3-0.4-0.4
			c-0.1-0.2-0.2-0.4-0.2-0.6c0-0.2-0.1-0.4-0.1-0.6c0-0.2,0-0.4,0.1-0.6c0-0.2,0.1-0.4,0.2-0.6c0.1-0.2,0.3-0.3,0.4-0.4
			c0.2-0.1,0.4-0.2,0.6-0.2C88.1,109.6,88.5,109.9,88.6,110.6z"/>
		<path id="XMLID_73_" class="st5" d="M91,106.4v7.9h1.6v-3c0-0.6,0.1-1,0.3-1.3c0.2-0.3,0.5-0.4,0.9-0.4c0.4,0,0.6,0.1,0.8,0.4
			c0.1,0.2,0.2,0.6,0.2,1.1v3.2h1.6v-3.5c0-0.4,0-0.7-0.1-1c-0.1-0.3-0.2-0.5-0.3-0.7c-0.2-0.2-0.4-0.4-0.6-0.5
			c-0.3-0.1-0.6-0.2-1-0.2c-0.3,0-0.6,0.1-0.9,0.2c-0.3,0.1-0.6,0.4-0.8,0.7h0v-3H91z"/>
		<path id="XMLID_72_" class="st5" d="M196.1,110.6v1.4h3.3v-1.4H196.1z"/>
		<path id="XMLID_71_" class="st5" d="M204.4,114.3v-7.8h-1.3c0,0.3-0.1,0.5-0.3,0.7c-0.1,0.2-0.3,0.4-0.5,0.5
			c-0.2,0.1-0.4,0.2-0.7,0.3c-0.3,0-0.5,0.1-0.8,0.1v1.2h2v5H204.4z"/>
		<path id="XMLID_70_" class="st5" d="M211.8,107.8v-1.3h-4.3l-0.8,4.3h1.4c0.2-0.2,0.3-0.4,0.5-0.5c0.2-0.1,0.4-0.2,0.7-0.2
			c0.2,0,0.4,0,0.6,0.1c0.2,0.1,0.3,0.2,0.4,0.3c0.1,0.1,0.2,0.3,0.3,0.5c0.1,0.2,0.1,0.4,0.1,0.6c0,0.2,0,0.4-0.1,0.6
			c-0.1,0.2-0.1,0.3-0.3,0.5c-0.1,0.1-0.3,0.2-0.4,0.3c-0.2,0.1-0.3,0.1-0.6,0.1c-0.4,0-0.6-0.1-0.9-0.3c-0.2-0.2-0.4-0.5-0.4-0.9
			h-1.6c0,0.4,0.1,0.8,0.2,1.1c0.2,0.3,0.4,0.6,0.6,0.8s0.6,0.4,0.9,0.5c0.3,0.1,0.7,0.1,1.1,0.1c0.4,0,0.8-0.1,1.1-0.2
			c0.3-0.1,0.7-0.3,0.9-0.6c0.3-0.3,0.5-0.5,0.6-0.9c0.2-0.3,0.2-0.7,0.2-1.1c0-0.4-0.1-0.7-0.2-1c-0.1-0.3-0.3-0.6-0.5-0.8
			c-0.2-0.2-0.4-0.4-0.7-0.6c-0.3-0.1-0.6-0.2-1-0.2c-0.3,0-0.6,0-0.8,0.1c-0.2,0.1-0.5,0.2-0.7,0.5l0,0l0.3-1.8H211.8z"/>
		<path id="XMLID_69_" class="st5" d="M213,112.6v1.7h1.7v-1.7H213z"/>
		<path id="XMLID_66_" class="st5" d="M217.3,110.4c0-0.1,0-0.3,0-0.5c0-0.2,0-0.4,0-0.6c0-0.2,0.1-0.4,0.1-0.6
			c0.1-0.2,0.1-0.4,0.2-0.5c0.1-0.2,0.2-0.3,0.4-0.4c0.1-0.1,0.3-0.1,0.5-0.1c0.2,0,0.4,0,0.5,0.1c0.1,0.1,0.3,0.2,0.4,0.4
			c0.1,0.2,0.2,0.3,0.2,0.5c0.1,0.2,0.1,0.4,0.1,0.6c0,0.2,0,0.4,0,0.6c0,0.2,0,0.3,0,0.5c0,0.2,0,0.5,0,0.8c0,0.3-0.1,0.6-0.1,0.9
			c-0.1,0.3-0.2,0.5-0.4,0.7c-0.2,0.2-0.4,0.3-0.7,0.3c-0.3,0-0.6-0.1-0.7-0.3c-0.2-0.2-0.3-0.5-0.4-0.7c-0.1-0.3-0.1-0.6-0.1-0.9
			C217.3,110.9,217.3,110.6,217.3,110.4z M215.7,110.4c0,0.8,0.1,1.4,0.2,2c0.2,0.5,0.4,0.9,0.6,1.2c0.3,0.3,0.6,0.5,0.9,0.7
			c0.3,0.1,0.7,0.2,1.1,0.2c0.4,0,0.8-0.1,1.1-0.2c0.3-0.1,0.7-0.4,0.9-0.7c0.3-0.3,0.5-0.7,0.6-1.2c0.2-0.5,0.2-1.2,0.2-2
			c0-0.8-0.1-1.4-0.2-1.9c-0.1-0.5-0.4-0.9-0.6-1.2c-0.3-0.3-0.6-0.5-0.9-0.7c-0.3-0.1-0.7-0.2-1.1-0.2c-0.4,0-0.8,0.1-1.1,0.2
			c-0.3,0.1-0.6,0.4-0.9,0.7c-0.3,0.3-0.5,0.7-0.6,1.2C215.8,109,215.7,109.6,215.7,110.4z"/>
		<path id="XMLID_63_" class="st5" d="M223.4,110.4c0-0.1,0-0.3,0-0.5c0-0.2,0-0.4,0-0.6c0-0.2,0.1-0.4,0.1-0.6
			c0.1-0.2,0.1-0.4,0.2-0.5c0.1-0.2,0.2-0.3,0.4-0.4c0.1-0.1,0.3-0.1,0.5-0.1s0.4,0,0.5,0.1c0.1,0.1,0.3,0.2,0.4,0.4
			s0.2,0.3,0.2,0.5c0.1,0.2,0.1,0.4,0.1,0.6c0,0.2,0,0.4,0,0.6c0,0.2,0,0.3,0,0.5c0,0.2,0,0.5,0,0.8c0,0.3-0.1,0.6-0.1,0.9
			c-0.1,0.3-0.2,0.5-0.4,0.7c-0.2,0.2-0.4,0.3-0.7,0.3c-0.3,0-0.6-0.1-0.7-0.3c-0.2-0.2-0.3-0.5-0.4-0.7c-0.1-0.3-0.1-0.6-0.1-0.9
			C223.4,110.9,223.4,110.6,223.4,110.4z M221.9,110.4c0,0.8,0.1,1.4,0.2,2c0.2,0.5,0.4,0.9,0.6,1.2c0.3,0.3,0.6,0.5,0.9,0.7
			c0.3,0.1,0.7,0.2,1.1,0.2c0.4,0,0.8-0.1,1.1-0.2c0.3-0.1,0.7-0.4,0.9-0.7c0.3-0.3,0.5-0.7,0.6-1.2c0.2-0.5,0.2-1.2,0.2-2
			c0-0.8-0.1-1.4-0.2-1.9c-0.1-0.5-0.4-0.9-0.6-1.2c-0.3-0.3-0.6-0.5-0.9-0.7c-0.3-0.1-0.7-0.2-1.1-0.2c-0.4,0-0.8,0.1-1.1,0.2
			c-0.3,0.1-0.6,0.4-0.9,0.7c-0.3,0.3-0.5,0.7-0.6,1.2C221.9,109,221.9,109.6,221.9,110.4z"/>
		<path id="XMLID_59_" class="st5" d="M128.7,142.9V141h1.6c0.2,0,0.3,0,0.4,0c0.1,0,0.3,0.1,0.4,0.1s0.2,0.2,0.3,0.3
			s0.1,0.3,0.1,0.5c0,0.3-0.1,0.6-0.3,0.7c-0.2,0.1-0.5,0.2-0.8,0.2H128.7z M127,139.7v7.9h3.8c0.4,0,0.7,0,1-0.1
			c0.3-0.1,0.6-0.2,0.9-0.4c0.3-0.2,0.5-0.4,0.6-0.7c0.2-0.3,0.2-0.6,0.2-1c0-0.5-0.1-0.9-0.4-1.3c-0.2-0.4-0.6-0.6-1.1-0.7
			c0.4-0.2,0.6-0.4,0.8-0.7c0.2-0.3,0.3-0.6,0.3-1c0-0.4-0.1-0.7-0.2-0.9c-0.1-0.3-0.3-0.5-0.5-0.6c-0.2-0.2-0.5-0.3-0.8-0.3
			c-0.3-0.1-0.7-0.1-1-0.1H127z M128.7,146.2v-2.2h1.9c0.4,0,0.7,0.1,0.9,0.3c0.2,0.2,0.3,0.5,0.3,0.9c0,0.2,0,0.4-0.1,0.5
			c-0.1,0.1-0.2,0.2-0.3,0.3c-0.1,0.1-0.3,0.1-0.4,0.2c-0.2,0-0.3,0-0.5,0H128.7z"/>
		<path id="XMLID_56_" class="st5" d="M134.6,143.6c0-0.4,0.1-0.7,0.3-0.9c0.2-0.2,0.4-0.4,0.6-0.6c0.3-0.1,0.5-0.3,0.8-0.3
			c0.3-0.1,0.6-0.1,1-0.1c0.3,0,0.6,0,0.9,0.1c0.3,0,0.6,0.1,0.8,0.2c0.2,0.1,0.4,0.3,0.6,0.5c0.2,0.2,0.2,0.5,0.2,0.8v3
			c0,0.3,0,0.5,0,0.7c0,0.2,0.1,0.4,0.2,0.5h-1.6c0-0.1-0.1-0.2-0.1-0.3c0-0.1,0-0.2,0-0.3c-0.3,0.3-0.5,0.4-0.9,0.5
			c-0.3,0.1-0.7,0.2-1,0.2c-0.3,0-0.5,0-0.8-0.1c-0.2-0.1-0.4-0.2-0.6-0.3c-0.2-0.1-0.3-0.3-0.4-0.5c-0.1-0.2-0.1-0.5-0.1-0.8
			c0-0.3,0.1-0.6,0.2-0.8c0.1-0.2,0.3-0.4,0.4-0.5c0.2-0.1,0.4-0.2,0.6-0.3c0.2-0.1,0.5-0.1,0.7-0.2c0.2,0,0.5-0.1,0.7-0.1
			c0.2,0,0.4-0.1,0.6-0.1c0.2,0,0.3-0.1,0.4-0.2c0.1-0.1,0.2-0.2,0.1-0.4c0-0.2,0-0.3-0.1-0.4c-0.1-0.1-0.1-0.2-0.2-0.2
			c-0.1-0.1-0.2-0.1-0.3-0.1c-0.1,0-0.2,0-0.4,0c-0.3,0-0.6,0.1-0.7,0.2c-0.2,0.1-0.3,0.4-0.3,0.7H134.6z M138.2,144.8
			c-0.1,0.1-0.2,0.1-0.3,0.1c-0.1,0-0.2,0.1-0.3,0.1c-0.1,0-0.2,0-0.4,0.1c-0.1,0-0.3,0-0.4,0.1c-0.1,0-0.2,0.1-0.4,0.1
			c-0.1,0-0.2,0.1-0.3,0.2c-0.1,0.1-0.1,0.1-0.2,0.2c-0.1,0.1-0.1,0.2-0.1,0.4c0,0.1,0,0.3,0.1,0.4c0.1,0.1,0.1,0.2,0.2,0.2
			c0.1,0.1,0.2,0.1,0.3,0.1c0.1,0,0.2,0,0.4,0c0.3,0,0.6-0.1,0.7-0.2c0.2-0.1,0.3-0.2,0.4-0.4c0.1-0.1,0.1-0.3,0.1-0.4
			c0-0.1,0-0.3,0-0.4V144.8z"/>
		<path id="XMLID_55_" class="st5" d="M141,141.9v5.7h1.6v-3c0-0.6,0.1-1,0.3-1.3c0.2-0.3,0.5-0.4,0.9-0.4c0.4,0,0.6,0.1,0.8,0.4
			c0.1,0.2,0.2,0.6,0.2,1.1v3.2h1.6v-3.5c0-0.4,0-0.7-0.1-1c-0.1-0.3-0.2-0.5-0.3-0.7c-0.2-0.2-0.4-0.4-0.6-0.5
			c-0.3-0.1-0.6-0.2-1-0.2c-0.3,0-0.7,0.1-1,0.2c-0.3,0.1-0.6,0.4-0.8,0.7h0v-0.8H141z"/>
		<path id="XMLID_54_" class="st5" d="M147.7,139.7v7.9h1.6v-2l0.6-0.6l1.6,2.6h1.9L151,144l2.2-2.1h-1.9l-2,2.1v-4.3H147.7z"/>
		<line id="XMLID_53_" class="st2" x1="45.5" y1="122.7" x2="234.1" y2="122.7"/>
		<path id="XMLID_52_" class="st5" d="M128.8,51.7v7.9h1.6v-5.3h0l3.3,5.3h1.7v-7.9h-1.6V57h0l-3.3-5.3H128.8z"/>
		<path id="XMLID_49_" class="st5" d="M139,56.5l1-2.9h0l1,2.9H139z M139.1,51.7l-3,7.9h1.8l0.6-1.8h3l0.6,1.8h1.8l-3-7.9H139.1z"/>
		<path id="XMLID_45_" class="st5" d="M146.3,54.9V53h1.6c0.2,0,0.3,0,0.4,0c0.1,0,0.3,0.1,0.4,0.1s0.2,0.2,0.3,0.3
			c0.1,0.1,0.1,0.3,0.1,0.5c0,0.3-0.1,0.6-0.3,0.7c-0.2,0.1-0.5,0.2-0.8,0.2H146.3z M144.6,51.7v7.9h3.8c0.4,0,0.7,0,1-0.1
			c0.3-0.1,0.6-0.2,0.9-0.4c0.3-0.2,0.5-0.4,0.6-0.7c0.2-0.3,0.2-0.6,0.2-1c0-0.5-0.1-0.9-0.4-1.3c-0.2-0.4-0.6-0.6-1.1-0.7
			c0.4-0.2,0.6-0.4,0.8-0.7c0.2-0.3,0.3-0.6,0.3-1c0-0.4-0.1-0.7-0.2-0.9c-0.1-0.3-0.3-0.5-0.5-0.6c-0.2-0.2-0.5-0.3-0.8-0.3
			s-0.7-0.1-1-0.1H144.6z M146.3,58.3v-2.2h1.9c0.4,0,0.7,0.1,0.9,0.3c0.2,0.2,0.3,0.5,0.3,0.9c0,0.2,0,0.4-0.1,0.5
			c-0.1,0.1-0.2,0.2-0.3,0.3c-0.1,0.1-0.3,0.1-0.4,0.2c-0.2,0-0.3,0-0.5,0H146.3z"/>
		<path id="XMLID_42_" class="st6" d="M48.9,34.2v5.5L45.5,37L48.9,34.2z M55.8,36.1h-6.9v1.8h6.9V36.1z"/>
		<path id="XMLID_41_" class="st5" d="M65.7,37.9H64c0,0.5,0.1,0.9,0.3,1.3c0.2,0.4,0.4,0.6,0.7,0.9c0.3,0.2,0.7,0.4,1.1,0.5
			c0.4,0.1,0.8,0.2,1.3,0.2c0.5,0,1-0.1,1.4-0.2c0.4-0.1,0.8-0.3,1-0.5c0.3-0.2,0.5-0.5,0.6-0.8c0.1-0.3,0.2-0.6,0.2-1
			c0-0.4-0.1-0.8-0.3-1.1c-0.2-0.3-0.4-0.5-0.7-0.7c-0.3-0.2-0.5-0.3-0.8-0.4c-0.3-0.1-0.5-0.1-0.6-0.2c-0.5-0.1-0.9-0.2-1.2-0.3
			c-0.3-0.1-0.5-0.2-0.7-0.2c-0.2-0.1-0.3-0.2-0.3-0.3c-0.1-0.1-0.1-0.2-0.1-0.4c0-0.2,0-0.3,0.1-0.4c0.1-0.1,0.2-0.2,0.3-0.3
			c0.1-0.1,0.2-0.1,0.4-0.2c0.1,0,0.3,0,0.4,0c0.2,0,0.4,0,0.6,0.1c0.2,0,0.3,0.1,0.5,0.2c0.1,0.1,0.3,0.2,0.3,0.4
			c0.1,0.2,0.1,0.4,0.2,0.6h1.7c0-0.5-0.1-0.8-0.3-1.2c-0.2-0.3-0.4-0.6-0.7-0.8c-0.3-0.2-0.6-0.4-1-0.4c-0.4-0.1-0.8-0.1-1.2-0.1
			c-0.4,0-0.7,0-1.1,0.1c-0.4,0.1-0.7,0.2-1,0.4c-0.3,0.2-0.5,0.5-0.7,0.8c-0.2,0.3-0.3,0.6-0.3,1.1c0,0.4,0.1,0.7,0.2,0.9
			c0.1,0.3,0.3,0.5,0.5,0.6c0.2,0.2,0.5,0.3,0.8,0.4c0.3,0.1,0.6,0.2,0.9,0.3c0.3,0.1,0.6,0.2,0.9,0.2c0.3,0.1,0.5,0.1,0.8,0.2
			c0.2,0.1,0.4,0.2,0.5,0.3c0.1,0.1,0.2,0.3,0.2,0.5c0,0.2-0.1,0.4-0.2,0.5c-0.1,0.1-0.2,0.2-0.4,0.3c-0.2,0.1-0.3,0.1-0.5,0.2
			c-0.2,0-0.3,0-0.5,0c-0.2,0-0.5,0-0.7-0.1c-0.2-0.1-0.4-0.1-0.6-0.3c-0.2-0.1-0.3-0.3-0.4-0.5C65.7,38.4,65.7,38.2,65.7,37.9z"/>
		<path id="XMLID_38_" class="st5" d="M74.4,39.5c-0.3,0-0.5-0.1-0.6-0.2c-0.2-0.1-0.3-0.2-0.4-0.4c-0.1-0.2-0.2-0.4-0.2-0.6
			c0-0.2-0.1-0.4-0.1-0.7c0-0.2,0-0.5,0.1-0.7s0.1-0.4,0.2-0.6c0.1-0.2,0.3-0.3,0.4-0.4c0.2-0.1,0.4-0.2,0.7-0.2
			c0.3,0,0.5,0.1,0.6,0.2c0.2,0.1,0.3,0.2,0.4,0.4c0.1,0.2,0.2,0.4,0.2,0.6c0.1,0.2,0.1,0.4,0.1,0.7c0,0.2,0,0.5-0.1,0.7
			c0,0.2-0.1,0.4-0.2,0.6c-0.1,0.2-0.2,0.3-0.4,0.4C74.9,39.5,74.7,39.5,74.4,39.5z M71.5,34.8v7.7h1.6v-2.7h0
			c0.2,0.3,0.4,0.5,0.7,0.6c0.3,0.1,0.6,0.2,1,0.2c0.4,0,0.8-0.1,1.1-0.2c0.3-0.2,0.6-0.4,0.8-0.7c0.2-0.3,0.4-0.6,0.5-0.9
			c0.1-0.4,0.2-0.7,0.2-1.1c0-0.4-0.1-0.8-0.2-1.2c-0.1-0.4-0.3-0.7-0.5-1c-0.2-0.3-0.5-0.5-0.8-0.7c-0.3-0.2-0.7-0.3-1.2-0.3
			c-0.4,0-0.7,0.1-1,0.2c-0.3,0.1-0.5,0.4-0.7,0.7h0v-0.7H71.5z"/>
		<path id="XMLID_35_" class="st5" d="M82.2,37.1h-2.6c0-0.1,0-0.2,0.1-0.4c0-0.1,0.1-0.3,0.2-0.4c0.1-0.1,0.2-0.2,0.4-0.3
			c0.2-0.1,0.4-0.1,0.6-0.1c0.4,0,0.7,0.1,0.9,0.3C82,36.4,82.1,36.7,82.2,37.1z M79.6,38.1h4.1c0-0.4,0-0.9-0.1-1.3
			c-0.1-0.4-0.3-0.8-0.5-1.1c-0.2-0.3-0.5-0.6-0.9-0.8c-0.4-0.2-0.8-0.3-1.3-0.3c-0.4,0-0.8,0.1-1.2,0.2c-0.4,0.2-0.7,0.4-0.9,0.6
			c-0.3,0.3-0.5,0.6-0.6,1c-0.1,0.4-0.2,0.8-0.2,1.2c0,0.4,0.1,0.9,0.2,1.2c0.1,0.4,0.3,0.7,0.6,1c0.3,0.3,0.6,0.5,0.9,0.6
			c0.4,0.1,0.8,0.2,1.2,0.2c0.7,0,1.2-0.1,1.7-0.4c0.5-0.3,0.8-0.8,1-1.5h-1.4c-0.1,0.2-0.2,0.3-0.4,0.5c-0.2,0.2-0.5,0.2-0.8,0.2
			c-0.4,0-0.8-0.1-1-0.3C79.7,39,79.6,38.6,79.6,38.1z"/>
		<path id="XMLID_34_" class="st5" d="M84.7,34.8v5.7h1.6v-3c0-0.6,0.1-1,0.3-1.3c0.2-0.3,0.5-0.4,0.9-0.4c0.4,0,0.6,0.1,0.8,0.4
			c0.1,0.2,0.2,0.6,0.2,1.1v3.2h1.6v-3.5c0-0.4,0-0.7-0.1-1c-0.1-0.3-0.2-0.5-0.3-0.7c-0.2-0.2-0.4-0.4-0.6-0.5
			c-0.3-0.1-0.6-0.2-1-0.2c-0.3,0-0.7,0.1-1,0.2c-0.3,0.1-0.6,0.4-0.8,0.7h0v-0.8H84.7z"/>
		<path id="XMLID_33_" class="st5" d="M93.2,34.8v-1.7h-1.6v1.7h-1v1.1h1v3.4c0,0.3,0,0.5,0.1,0.7c0.1,0.2,0.2,0.3,0.4,0.4
			c0.2,0.1,0.4,0.2,0.6,0.2c0.2,0,0.5,0.1,0.7,0.1c0.2,0,0.3,0,0.5,0c0.2,0,0.3,0,0.4,0v-1.2c-0.1,0-0.2,0-0.2,0c-0.1,0-0.2,0-0.3,0
			c-0.3,0-0.4,0-0.5-0.1c-0.1-0.1-0.1-0.3-0.1-0.5v-2.8h1.2v-1.1H93.2z"/>
		<path id="XMLID_30_" class="st3" d="M123.1,66.7h3.3c0.6,0,1.1,0.1,1.6,0.3c0.4,0.2,0.8,0.5,1.1,0.9c0.3,0.4,0.5,0.8,0.6,1.3
			c0.1,0.5,0.2,1,0.2,1.5c0,0.5-0.1,1.1-0.2,1.5c-0.1,0.5-0.3,0.9-0.6,1.3c-0.3,0.4-0.6,0.6-1.1,0.8c-0.4,0.2-1,0.3-1.6,0.3h-3.3
			V66.7z M124.5,73.5h1.4c0.5,0,1-0.1,1.3-0.2c0.3-0.1,0.6-0.3,0.8-0.6c0.2-0.3,0.3-0.6,0.4-0.9c0.1-0.3,0.1-0.7,0.1-1.1
			c0-0.4,0-0.8-0.1-1.1c-0.1-0.3-0.2-0.6-0.4-0.9c-0.2-0.3-0.5-0.5-0.8-0.6c-0.3-0.1-0.8-0.2-1.3-0.2h-1.4V73.5z"/>
		<path id="XMLID_27_" class="st3" d="M134.8,71.3c0-0.2-0.1-0.4-0.1-0.6c-0.1-0.2-0.2-0.3-0.3-0.5c-0.1-0.1-0.3-0.3-0.4-0.3
			c-0.2-0.1-0.4-0.1-0.6-0.1c-0.2,0-0.4,0-0.6,0.1c-0.2,0.1-0.3,0.2-0.5,0.3c-0.1,0.1-0.2,0.3-0.3,0.5c-0.1,0.2-0.1,0.4-0.1,0.6
			H134.8z M131.9,72.1c0,0.2,0,0.4,0.1,0.6c0.1,0.2,0.2,0.4,0.3,0.5c0.1,0.2,0.3,0.3,0.5,0.4c0.2,0.1,0.4,0.1,0.7,0.1
			c0.4,0,0.7-0.1,0.9-0.2c0.2-0.2,0.4-0.4,0.5-0.7h1.2c-0.1,0.3-0.2,0.6-0.3,0.8s-0.4,0.5-0.6,0.6c-0.2,0.2-0.5,0.3-0.8,0.4
			c-0.3,0.1-0.6,0.1-0.9,0.1c-0.5,0-0.9-0.1-1.2-0.2c-0.3-0.1-0.6-0.4-0.9-0.6c-0.2-0.3-0.4-0.6-0.5-1c-0.1-0.4-0.2-0.8-0.2-1.2
			c0-0.4,0.1-0.8,0.2-1.2c0.1-0.4,0.3-0.7,0.6-1c0.2-0.3,0.5-0.5,0.9-0.7c0.3-0.2,0.7-0.2,1.2-0.2c0.5,0,0.9,0.1,1.2,0.3
			c0.4,0.2,0.7,0.4,0.9,0.7c0.2,0.3,0.4,0.7,0.5,1.1c0.1,0.4,0.1,0.8,0.1,1.2H131.9z"/>
		<path id="XMLID_26_" class="st3" d="M136.5,68.9h1v-1.7h1.3v1.7h1.1v0.9h-1.1v3.1c0,0.1,0,0.2,0,0.3c0,0.1,0,0.2,0.1,0.2
			c0,0.1,0.1,0.1,0.2,0.2c0.1,0,0.2,0,0.3,0c0.1,0,0.2,0,0.3,0c0.1,0,0.2,0,0.3,0v1c-0.1,0-0.3,0-0.4,0c-0.1,0-0.3,0-0.4,0
			c-0.3,0-0.6,0-0.8-0.1c-0.2-0.1-0.4-0.2-0.5-0.3c-0.1-0.1-0.2-0.3-0.2-0.5c0-0.2-0.1-0.4-0.1-0.6v-3.4h-1V68.9z"/>
		<path id="XMLID_23_" class="st3" d="M145.6,73.4c0,0.2,0,0.3,0.1,0.3c0,0.1,0.1,0.1,0.2,0.1c0,0,0.1,0,0.1,0c0.1,0,0.1,0,0.2,0
			v0.9c0,0-0.1,0-0.2,0c-0.1,0-0.1,0-0.2,0.1c-0.1,0-0.1,0-0.2,0c-0.1,0-0.1,0-0.2,0c-0.3,0-0.5-0.1-0.6-0.2
			c-0.2-0.1-0.3-0.3-0.3-0.5c-0.3,0.2-0.6,0.4-0.9,0.5c-0.4,0.1-0.7,0.2-1.1,0.2c-0.3,0-0.5,0-0.7-0.1c-0.2-0.1-0.4-0.2-0.6-0.3
			c-0.2-0.1-0.3-0.3-0.4-0.5c-0.1-0.2-0.2-0.5-0.2-0.7c0-0.4,0.1-0.6,0.2-0.9c0.1-0.2,0.3-0.4,0.5-0.5c0.2-0.1,0.5-0.2,0.7-0.3
			c0.3-0.1,0.5-0.1,0.8-0.1c0.2,0,0.4-0.1,0.7-0.1c0.2,0,0.4-0.1,0.5-0.1c0.2,0,0.3-0.1,0.4-0.2c0.1-0.1,0.1-0.2,0.1-0.4
			c0-0.2,0-0.3-0.1-0.4c-0.1-0.1-0.2-0.2-0.3-0.2c-0.1-0.1-0.2-0.1-0.4-0.1c-0.1,0-0.3,0-0.4,0c-0.4,0-0.6,0.1-0.9,0.2
			c-0.2,0.1-0.4,0.4-0.4,0.7h-1.3c0-0.4,0.1-0.7,0.3-0.9c0.2-0.2,0.4-0.4,0.6-0.6c0.2-0.1,0.5-0.3,0.8-0.3c0.3-0.1,0.6-0.1,0.9-0.1
			c0.3,0,0.6,0,0.8,0.1c0.3,0.1,0.5,0.2,0.7,0.3c0.2,0.1,0.4,0.3,0.5,0.5c0.1,0.2,0.2,0.5,0.2,0.8V73.4z M144.3,71.8
			c-0.2,0.1-0.4,0.2-0.7,0.2c-0.3,0-0.6,0.1-0.8,0.1c-0.1,0-0.3,0.1-0.4,0.1c-0.1,0-0.2,0.1-0.3,0.2c-0.1,0.1-0.2,0.2-0.2,0.3
			c-0.1,0.1-0.1,0.2-0.1,0.4c0,0.1,0,0.3,0.1,0.4c0.1,0.1,0.2,0.2,0.3,0.2c0.1,0.1,0.2,0.1,0.4,0.1c0.1,0,0.3,0,0.4,0
			c0.1,0,0.3,0,0.5-0.1c0.2,0,0.3-0.1,0.5-0.2c0.1-0.1,0.3-0.2,0.4-0.3c0.1-0.1,0.1-0.3,0.1-0.5V71.8z"/>
		<path id="XMLID_20_" class="st3" d="M147,66.7h1.3v1.2H147V66.7z M147,68.9h1.3v5.7H147V68.9z"/>
		<path id="XMLID_19_" class="st3" d="M149.6,66.7h1.3v7.9h-1.3V66.7z"/>
		<path id="XMLID_18_" class="st3" d="M153.2,72.8c0,0.4,0.2,0.6,0.4,0.8c0.2,0.1,0.5,0.2,0.9,0.2c0.1,0,0.3,0,0.4,0
			c0.2,0,0.3-0.1,0.4-0.1c0.1-0.1,0.2-0.1,0.3-0.2c0.1-0.1,0.1-0.2,0.1-0.4c0-0.2-0.1-0.3-0.2-0.4c-0.1-0.1-0.3-0.2-0.4-0.2
			c-0.2-0.1-0.4-0.1-0.6-0.2c-0.2,0-0.4-0.1-0.7-0.1c-0.2-0.1-0.5-0.1-0.7-0.2c-0.2-0.1-0.4-0.2-0.6-0.3c-0.2-0.1-0.3-0.3-0.4-0.5
			c-0.1-0.2-0.2-0.4-0.2-0.7c0-0.3,0.1-0.6,0.2-0.8c0.2-0.2,0.3-0.4,0.6-0.5c0.2-0.1,0.5-0.2,0.8-0.3c0.3-0.1,0.6-0.1,0.8-0.1
			c0.3,0,0.6,0,0.8,0.1c0.3,0.1,0.5,0.2,0.7,0.3c0.2,0.1,0.4,0.3,0.5,0.6c0.1,0.2,0.2,0.5,0.3,0.8h-1.3c-0.1-0.3-0.2-0.5-0.4-0.6
			c-0.2-0.1-0.5-0.2-0.7-0.2c-0.1,0-0.2,0-0.3,0c-0.1,0-0.2,0-0.3,0.1c-0.1,0-0.2,0.1-0.3,0.2c-0.1,0.1-0.1,0.2-0.1,0.3
			c0,0.2,0.1,0.3,0.2,0.4c0.1,0.1,0.3,0.2,0.4,0.2c0.2,0.1,0.4,0.1,0.6,0.2c0.2,0,0.5,0.1,0.7,0.1c0.2,0.1,0.5,0.1,0.7,0.2
			c0.2,0.1,0.4,0.2,0.6,0.3c0.2,0.1,0.3,0.3,0.4,0.5c0.1,0.2,0.2,0.4,0.2,0.7c0,0.3-0.1,0.6-0.2,0.9c-0.2,0.2-0.4,0.4-0.6,0.6
			c-0.2,0.1-0.5,0.3-0.8,0.3c-0.3,0.1-0.6,0.1-0.9,0.1c-0.4,0-0.7,0-1-0.1c-0.3-0.1-0.6-0.2-0.8-0.4c-0.2-0.2-0.4-0.4-0.5-0.6
			c-0.1-0.3-0.2-0.5-0.2-0.9H153.2z"/>
		<path id="XMLID_17_" class="st5" d="M196.1,36.9v1.4h3.3v-1.4H196.1z"/>
		<path id="XMLID_16_" class="st5" d="M204.4,40.6v-7.8h-1.3c0,0.3-0.1,0.5-0.3,0.7c-0.1,0.2-0.3,0.4-0.5,0.5
			c-0.2,0.1-0.4,0.2-0.7,0.3c-0.3,0-0.5,0.1-0.8,0.1v1.2h2v5H204.4z"/>
		<path id="XMLID_15_" class="st5" d="M211.8,34.1v-1.3h-4.3l-0.8,4.3h1.4c0.2-0.2,0.3-0.4,0.5-0.5c0.2-0.1,0.4-0.2,0.7-0.2
			c0.2,0,0.4,0,0.6,0.1c0.2,0.1,0.3,0.2,0.4,0.3c0.1,0.1,0.2,0.3,0.3,0.5c0.1,0.2,0.1,0.4,0.1,0.6c0,0.2,0,0.4-0.1,0.6
			c-0.1,0.2-0.1,0.3-0.3,0.5c-0.1,0.1-0.3,0.2-0.4,0.3c-0.2,0.1-0.3,0.1-0.6,0.1c-0.4,0-0.6-0.1-0.9-0.3c-0.2-0.2-0.4-0.5-0.4-0.9
			h-1.6c0,0.4,0.1,0.8,0.2,1.1c0.2,0.3,0.4,0.6,0.6,0.8c0.3,0.2,0.6,0.4,0.9,0.5c0.3,0.1,0.7,0.1,1.1,0.1c0.4,0,0.8-0.1,1.1-0.2
			c0.3-0.1,0.7-0.3,0.9-0.6c0.3-0.3,0.5-0.5,0.6-0.9c0.2-0.3,0.2-0.7,0.2-1.1c0-0.4-0.1-0.7-0.2-1c-0.1-0.3-0.3-0.6-0.5-0.8
			c-0.2-0.2-0.4-0.4-0.7-0.6c-0.3-0.1-0.6-0.2-1-0.2c-0.3,0-0.6,0-0.8,0.1c-0.2,0.1-0.5,0.2-0.7,0.5l0,0l0.3-1.8H211.8z"/>
		<path id="XMLID_14_" class="st5" d="M213,38.9v1.7h1.7v-1.7H213z"/>
		<path id="XMLID_11_" class="st5" d="M217.3,36.7c0-0.1,0-0.3,0-0.5c0-0.2,0-0.4,0-0.6c0-0.2,0.1-0.4,0.1-0.6
			c0.1-0.2,0.1-0.4,0.2-0.5c0.1-0.2,0.2-0.3,0.4-0.4c0.1-0.1,0.3-0.1,0.5-0.1c0.2,0,0.4,0,0.5,0.1c0.1,0.1,0.3,0.2,0.4,0.4
			c0.1,0.2,0.2,0.3,0.2,0.5c0.1,0.2,0.1,0.4,0.1,0.6c0,0.2,0,0.4,0,0.6c0,0.2,0,0.3,0,0.5c0,0.2,0,0.5,0,0.8c0,0.3-0.1,0.6-0.1,0.9
			c-0.1,0.3-0.2,0.5-0.4,0.7c-0.2,0.2-0.4,0.3-0.7,0.3c-0.3,0-0.6-0.1-0.7-0.3c-0.2-0.2-0.3-0.5-0.4-0.7c-0.1-0.3-0.1-0.6-0.1-0.9
			C217.3,37.2,217.3,36.9,217.3,36.7z M215.7,36.7c0,0.8,0.1,1.4,0.2,2c0.2,0.5,0.4,0.9,0.6,1.2c0.3,0.3,0.6,0.5,0.9,0.7
			c0.3,0.1,0.7,0.2,1.1,0.2c0.4,0,0.8-0.1,1.1-0.2c0.3-0.1,0.7-0.4,0.9-0.7c0.3-0.3,0.5-0.7,0.6-1.2c0.2-0.5,0.2-1.2,0.2-2
			c0-0.8-0.1-1.4-0.2-1.9c-0.1-0.5-0.4-0.9-0.6-1.2c-0.3-0.3-0.6-0.5-0.9-0.7c-0.3-0.1-0.7-0.2-1.1-0.2c-0.4,0-0.8,0.1-1.1,0.2
			c-0.3,0.1-0.6,0.4-0.9,0.7c-0.3,0.3-0.5,0.7-0.6,1.2C215.8,35.3,215.7,35.9,215.7,36.7z"/>
		<path id="XMLID_8_" class="st5" d="M223.4,36.7c0-0.1,0-0.3,0-0.5c0-0.2,0-0.4,0-0.6c0-0.2,0.1-0.4,0.1-0.6
			c0.1-0.2,0.1-0.4,0.2-0.5c0.1-0.2,0.2-0.3,0.4-0.4c0.1-0.1,0.3-0.1,0.5-0.1s0.4,0,0.5,0.1c0.1,0.1,0.3,0.2,0.4,0.4
			c0.1,0.2,0.2,0.3,0.2,0.5c0.1,0.2,0.1,0.4,0.1,0.6c0,0.2,0,0.4,0,0.6c0,0.2,0,0.3,0,0.5c0,0.2,0,0.5,0,0.8c0,0.3-0.1,0.6-0.1,0.9
			c-0.1,0.3-0.2,0.5-0.4,0.7c-0.2,0.2-0.4,0.3-0.7,0.3c-0.3,0-0.6-0.1-0.7-0.3c-0.2-0.2-0.3-0.5-0.4-0.7c-0.1-0.3-0.1-0.6-0.1-0.9
			C223.4,37.2,223.4,36.9,223.4,36.7z M221.9,36.7c0,0.8,0.1,1.4,0.2,2c0.2,0.5,0.4,0.9,0.6,1.2c0.3,0.3,0.6,0.5,0.9,0.7
			c0.3,0.1,0.7,0.2,1.1,0.2c0.4,0,0.8-0.1,1.1-0.2c0.3-0.1,0.7-0.4,0.9-0.7c0.3-0.3,0.5-0.7,0.6-1.2c0.2-0.5,0.2-1.2,0.2-2
			c0-0.8-0.1-1.4-0.2-1.9c-0.1-0.5-0.4-0.9-0.6-1.2c-0.3-0.3-0.6-0.5-0.9-0.7c-0.3-0.1-0.7-0.2-1.1-0.2c-0.4,0-0.8,0.1-1.1,0.2
			c-0.3,0.1-0.6,0.4-0.9,0.7c-0.3,0.3-0.5,0.7-0.6,1.2C221.9,35.3,221.9,35.9,221.9,36.7z"/>
		<path id="XMLID_7_" class="st3" d="M39.2,172.2h201.3c1.3,0,2.4,1.1,2.4,2.4v18.9c0,1.3-1.1,2.4-2.4,2.4H39.2
			c-1.3,0-2.4-1.1-2.4-2.4v-18.9C36.8,173.2,37.8,172.2,39.2,172.2z"/>
		<path id="XMLID_4_" class="st0" d="M133.6,184.9c0-0.3,0-0.7,0.1-1c0.1-0.3,0.2-0.6,0.4-0.9c0.2-0.3,0.4-0.5,0.7-0.6
			c0.3-0.2,0.6-0.2,1-0.2c0.4,0,0.7,0.1,1,0.2c0.3,0.1,0.5,0.4,0.7,0.6c0.2,0.3,0.3,0.5,0.4,0.9c0.1,0.3,0.1,0.7,0.1,1
			c0,0.3,0,0.7-0.1,1c-0.1,0.3-0.2,0.6-0.4,0.8c-0.2,0.3-0.4,0.5-0.7,0.6c-0.3,0.1-0.6,0.2-1,0.2c-0.4,0-0.7-0.1-1-0.2
			c-0.3-0.2-0.5-0.4-0.7-0.6c-0.2-0.3-0.3-0.5-0.4-0.8C133.7,185.5,133.6,185.2,133.6,184.9z M131.9,184.9c0,0.6,0.1,1.1,0.3,1.6
			c0.2,0.5,0.4,0.9,0.8,1.3c0.3,0.4,0.7,0.7,1.2,0.9c0.5,0.2,1,0.3,1.6,0.3c0.6,0,1.2-0.1,1.6-0.3c0.5-0.2,0.9-0.5,1.2-0.9
			c0.3-0.4,0.6-0.8,0.8-1.3c0.2-0.5,0.3-1,0.3-1.6c0-0.6-0.1-1.1-0.3-1.6c-0.2-0.5-0.4-1-0.8-1.3c-0.3-0.4-0.7-0.7-1.2-0.9
			c-0.5-0.2-1-0.3-1.6-0.3c-0.6,0-1.2,0.1-1.6,0.3c-0.5,0.2-0.9,0.5-1.2,0.9c-0.3,0.4-0.6,0.8-0.8,1.3
			C132,183.7,131.9,184.3,131.9,184.9z"/>
		<path id="XMLID_3_" class="st0" d="M140.9,180.9v7.9h1.7v-2.6l1-1l2.4,3.6h2.2l-3.4-4.8l3.1-3.1h-2.2l-3.1,3.3v-3.3H140.9z"/>
	</g>
</g>
</svg>
